<?xml version="1.0" standalone="no"?>
<!DOCTYPE svg PUBLIC "-//W3C//DTD SVG 1.1//EN" "http://www.w3.org/Graphics/SVG/1.1/DTD/svg11.dtd" >
<svg xmlns="http://www.w3.org/2000/svg">
<metadata>
Created by FontForge 20120731 at Fri Nov 11 15:52:23 2016
 By admin
</metadata>
<defs>
<font id="iconfont" horiz-adv-x="1024" >
  <font-face 
    font-family="iconfont"
    font-weight="500"
    font-stretch="normal"
    units-per-em="1024"
    panose-1="2 0 6 3 0 0 0 0 0 0"
    ascent="896"
    descent="-128"
    x-height="792"
    bbox="-1 -222 1402.57 896.125"
    underline-thickness="0"
    underline-position="0"
    unicode-range="U+0078-E884"
  />
<missing-glyph 
 />
    <glyph glyph-name=".notdef" 
 />
    <glyph glyph-name=".notdef" 
 />
    <glyph glyph-name=".null" horiz-adv-x="0" 
 />
    <glyph glyph-name="nonmarkingreturn" horiz-adv-x="341" 
 />
    <glyph glyph-name="x" unicode="x" horiz-adv-x="1001" 
d="M281 543q-27 -1 -53 -1h-83q-18 0 -36.5 -6t-32.5 -18.5t-23 -32t-9 -45.5v-76h912v41q0 16 -0.5 30t-0.5 18q0 13 -5 29t-17 29.5t-31.5 22.5t-49.5 9h-133v-97h-438v97zM955 310v-52q0 -23 0.5 -52t0.5 -58t-10.5 -47.5t-26 -30t-33 -16t-31.5 -4.5q-14 -1 -29.5 -0.5
t-29.5 0.5h-32l-45 128h-439l-44 -128h-29h-34q-20 0 -45 1q-25 0 -41 9.5t-25.5 23t-13.5 29.5t-4 30v167h911zM163 247q-12 0 -21 -8.5t-9 -21.5t9 -21.5t21 -8.5q13 0 22 8.5t9 21.5t-9 21.5t-22 8.5zM316 123q-8 -26 -14 -48q-5 -19 -10.5 -37t-7.5 -25t-3 -15t1 -14.5
t9.5 -10.5t21.5 -4h37h67h81h80h64h36q23 0 34 12t2 38q-5 13 -9.5 30.5t-9.5 34.5q-5 19 -11 39h-368zM336 498v228q0 11 2.5 23t10 21.5t20.5 15.5t34 6h188q31 0 51.5 -14.5t20.5 -52.5v-227h-327z" />
    <glyph glyph-name="bofang" unicode="&#xe635;" 
d="M512 812q-139 0 -257 -68.5t-186.5 -186.5t-68.5 -257t68.5 -257t186.5 -186.5t257 -68.5t257 68.5t186.5 186.5t68.5 257t-68.5 257t-186.5 186.5t-257 68.5zM512 -148q-122 0 -225 60t-163 163t-60 225t60 225t163 163t225 60t225 -60t163 -163t60 -225t-60 -225
t-163 -163t-225 -60zM384 556l384 -256l-384 -256v512z" />
    <glyph glyph-name="xiayishou" unicode="&#xe601;" 
d="M512 812q-139 0 -257 -68.5t-186.5 -186.5t-68.5 -257t68.5 -257t186.5 -186.5t257 -68.5t257 68.5t186.5 186.5t68.5 257t-68.5 257t-186.5 186.5t-257 68.5zM512 -148q-122 0 -225 60t-163 163t-60 225t60 225t163 163t225 60t225 -60t163 -163t60 -225t-60 -225
t-163 -163t-225 -60zM544 492l288 -192l-288 -192v384zM256 492l288 -192l-288 -192v384z" />
    <glyph glyph-name="shangyishou" unicode="&#xe63f;" 
d="M0 300q0 -139 68.5 -257t186.5 -186.5t257 -68.5t257 68.5t186.5 186.5t68.5 257t-68.5 257t-186.5 186.5t-257 68.5t-257 -68.5t-186.5 -186.5t-68.5 -257zM64 300q0 122 60 225t163 163t225 60t225 -60t163 -163t60 -225t-60 -225t-163 -163t-225 -60t-225 60t-163 163
t-60 225zM480 492l-288 -192l288 -192v384zM768 492l-288 -192l288 -192v384z" />
    <glyph glyph-name="xiajiantou" unicode="&#xe63e;" 
d="M69 524v0l-70 -69l512 -508l511 508l-69 69h-1v0l-441 -439z" />
    <glyph glyph-name="chongzhi" unicode="&#xe60b;" 
d="M513.5 812q-104.5 0 -199.5 -40.5t-164 -109.5t-109.5 -164t-40.5 -199q0 -175 106 -313l39 40q-90 121 -90 273q0 93 36.5 178t97.5 146t146 97.5t178.5 36.5t178 -36.5t146 -97.5t98 -146t36.5 -178.5t-36.5 -178t-98 -146t-146 -98t-178.5 -36.5q-135 0 -248 73
l-34 -43q128 -85 282 -85q105 0 200 41t163.5 109.5t109.5 163.5t41 199.5t-41 199.5t-109.5 164t-163.5 109.5t-199.5 40.5zM293 244v-55h202v-147v0v0v-37h55v37v0v0v147h202v55h-202v110h202v55h-162l118 118l-40 39l-146 -145l-145 145l-40 -39l118 -118h-162v-55h202
v-110h-202z" />
    <glyph glyph-name="erweima" unicode="&#xe61d;" 
d="M92 748h359q11 -1 17 -7.5t8.5 -21t3 -24t0 -30t-0.5 -25.5v-196q0 -8 0.5 -26t0.5 -27.5t-2 -22.5t-6.5 -20.5t-13 -11t-25 -4t-39.5 0.5t-28 1h-191q-7 0 -27 -0.5t-30 -0.5t-24 2.5t-21 9t-9 16.5v360q8 21 28 27v0v0zM141 667v-256h259v260h-258q-1 -1 -1 -4v0v0z
M574 748h360q23 -9 27 -32v-350q-5 -25 -25 -31q-11 -3 -26 -3t-35.5 1t-28.5 1h-185q-8 0 -29 -1t-37 -1t-26 3q-9 3 -14.5 11t-7 22t-2 24.5t0 30t0.5 26.5v184q0 8 -0.5 29t-0.5 31.5t2.5 24.5t9 21t17.5 9v0v0zM624 667v-256h259v260h-258q-2 -1 -1 -4v0v0zM259 592
q27 5 46 -10t20 -40q0 -31 -26 -46.5t-53 -2.5q-19 10 -25.5 32t4 42.5t34.5 24.5v0v0zM742 592q44 8 59 -29q13 -32 -9 -58q-18 -22 -50 -16q-26 4 -36 27.5t0 47t36 28.5v0v0zM449 -149h-356q-23 7 -29 29v358q7 21 24 26q11 3 26 3t35.5 -1t29.5 -1h184q8 0 28.5 1.5
t36.5 1t27 -3.5q9 -3 15 -10.5t8 -21.5t2 -24.5t-0.5 -30t-0.5 -26.5v-189q0 -7 0.5 -28t0 -30.5t-3 -23.5t-9.5 -20.5t-18 -8.5v0v0zM141 184v-255h259v259h-258q-1 0 -1 -4v0v0zM961 233v-100q-1 -8 -1 -53v-55h-257v58q-5 2 -38.5 1.5t-40.5 -0.5q-2 -19 -1.5 -115
t-0.5 -118h-47q-11 3 -18 10.5t-9.5 21.5t-2.5 24.5t0.5 30.5t0.5 29v184q0 8 -1 29t-0.5 37t3.5 26q1 5 4 9t9 6.5t10 4t13 2t13 0.5h15.5h14.5h175v-158h81q0 14 -0.5 79.5t1.5 78.5q20 1 37 0.5t28 -8.5t12 -24v0v0zM265 111q30 3 48.5 -20t7.5 -53q-10 -27 -39 -31.5
t-50 15t-12.5 52.5t45.5 37v0v0zM790 -149h-87v47.5t1 45.5h86v-93v0v0zM961 -56v-61q-5 -24 -29 -32h-61q0 9 -0.5 47.5t1.5 45.5h89v0v0zM961 -56z" />
    <glyph glyph-name="jiantoushang" unicode="&#xe600;" 
d="M512 640l-452 -453l60 -59l392 392l392 -392l60 59z" />
    <glyph glyph-name="sousuo01" unicode="&#xe62c;" 
d="M864 -73q-8 0 -14 7l-205 243q-11 13 1 25q34 34 54 79q23 51 23 107q0 109 -77.5 186.5t-186.5 77.5t-186.5 -77.5t-77.5 -186.5t77.5 -186.5t186.5 -77.5q56 0 106 22q7 4 14 1t10 -10t0.5 -14t-9.5 -10q-58 -25 -121 -25q-124 0 -212.5 88t-88.5 212.5t88.5 212.5
t212.5 88t212.5 -88t88.5 -213q0 -64 -26 -122q-19 -43 -51 -78l195 -230q5 -6 4.5 -14t-6.5 -12q-5 -5 -12 -5z" />
    <glyph glyph-name="mulu" unicode="&#xe627;" 
d="M887 -212h-750q-19 0 -32.5 13.5t-13.5 32.5v841q0 18 13.5 31.5t32.5 13.5h159v92h46v-92h341v92h46v-92h158q19 0 32.5 -13.5t13.5 -31.5v-841q0 -19 -13.5 -32.5t-32.5 -13.5zM888 653q0 10 -6.5 16.5t-15.5 6.5h-137v-92h-46v92h-341v-93l-46 1v92h-138
q-9 0 -15.5 -6.5t-6.5 -16.5v-798q0 -10 6.5 -16.5t15.5 -6.5h708q9 0 15.5 6.5t6.5 16.5v798zM365 105h432v-45h-432v45zM365 287h432v-45h-432v45zM365 469h432v-45h-432v45zM228 105h68v-45h-68v45zM228 287h68v-45h-68v45zM228 469h68v-45h-68v45z" />
    <glyph glyph-name="gerenzhongxin" unicode="&#xe637;" 
d="M660 279q50 37 78.5 91.5t28.5 118.5q0 107 -76.5 183.5t-184 76.5t-183.5 -76.5t-76 -183.5q0 -64 29 -119.5t79 -91.5q-117 -47 -190 -151.5t-73 -234.5q0 -16 11.5 -27.5t27.5 -11.5t27.5 11.5t11.5 27.5q0 91 45 168.5t122.5 123t169.5 45.5h2.5h1.5h1.5h1.5
q91 0 168.5 -45.5t122.5 -123t45 -168.5q0 -16 11.5 -27.5t27.5 -11.5t27.5 11.5t11.5 27.5q0 131 -74.5 236.5t-193.5 150.5zM325 488.5q0 75.5 53 129t128.5 53.5t129 -53.5t53.5 -129t-53.5 -128.5t-129 -53t-128.5 53t-53 128.5z" />
    <glyph glyph-name="weidiaoyan" unicode="&#xe617;" 
d="M769 203h-103l-93 -22l28 73l41 127l218 152l57 -11l-216 -160l-40 7l-38 -114l24 -29h122v34l205 159v-45zM712 351l228 159l34 -68l-216 -171zM780 567h-136v137h-535v-808h671v271l46 41v-358h-763v899h581l182 -182v0v-11l-46 -30v41z" />
    <glyph glyph-name="pinglun" unicode="&#xe64d;" 
d="M182 -92q-16 0 -32 1l-49 3l43 22q77 42 113 124q-75 48 -116.5 117.5t-41.5 147.5q0 92 56.5 170t153 123.5t210.5 45.5t211 -45.5t153 -123.5t56 -170t-56 -170.5t-153 -124t-211 -45.5q-27 0 -54 3q-65 -40 -142 -60q-70 -18 -141 -18zM519.5 635q-106.5 0 -197 -42
t-143 -114t-52.5 -156q0 -74 40.5 -138.5t113.5 -109.5l10 -6l-4 -11q-29 -74 -91 -123q60 2 120 18q76 20 138 59l4 2h5q28 -4 56 -4q107 0 197 42t142.5 114t52.5 156.5t-52.5 156.5t-142.5 114t-196.5 42z" />
    <glyph glyph-name="iconfontcha" unicode="&#xe65e;" 
d="M541 300l370 370q6 6 6 14.5t-6 14.5t-14.5 6t-14.5 -6l-370 -370l-370 370q-6 6 -14 6t-14 -6t-6 -14.5t6 -14.5l369 -370l-369 -369q-6 -6 -6 -14.5t6 -14.5t14.5 -6t14.5 6l369 369l370 -369q6 -6 14.5 -6t14.5 6t6 14.5t-6 14.5z" />
    <glyph glyph-name="sousuo" unicode="&#xe63c;" 
d="M126 346.5q0 93.5 46 172.5t125 125t172.5 46t172.5 -46t125 -125t46 -172.5t-46 -172.5t-125 -125t-172.5 -46t-172.5 46t-125 125t-46 172.5zM723 33l182 -183l53 53l-182 182q97 113 97 261q0 110 -54 203t-147 147t-202.5 54t-202.5 -54t-147 -147t-54 -202.5
t54 -202.5t147 -147t202 -54q143 0 254 90z" />
    <glyph glyph-name="01" unicode="&#xe62d;" 
d="M189 465zM131 465q0 24 17 41t41 17t41 -17t17 -41t-17 -41t-41 -17t-41 17t-17 41zM304 490q-4 0 -7 -3t-3 -7v-31q0 -4 3 -7t7 -3h579q4 0 7 3t3 7v31q0 4 -3 7t-7 3h-579zM189 271zM131 271q0 24 17 41t41 17t41 -17t17 -41t-17 -41.5t-41 -17.5t-41 17.5t-17 41.5z
M294 255q0 -4 3 -7t7 -3h579q4 0 7 3t3 7v31q0 4 -3 7t-7 3h-579q-4 0 -7 -3t-3 -7v-31zM189 77zM131 77q0 24 17 41t41 17t41 -17t17 -41t-17 -41.5t-41 -17.5t-41 17.5t-17 41.5zM294 61q0 -4 3 -7t7 -3h579q4 0 7 3t3 7v31q0 4 -3 7t-7 3h-579q-4 0 -7 -3t-3 -7v-31z" />
    <glyph glyph-name="shoucang" unicode="&#xe62e;" 
d="M510 753q15 0 21 -12l97 -198q9 -18 29 -21l224 -33q14 -2 18 -14t-5 -20l-164 -161q-14 -14 -11 -33l38 -222q2 -13 -9 -20q-6 -4 -13 -4q-6 0 -12 3l-195 102q-9 5 -18.5 5t-18.5 -5l-195 -102q-5 -3 -11 -3q-8 0 -14 4q-11 7 -9 20l38 222q3 19 -11 33l-164 161
q-9 8 -5 20t18 14l224 33q20 3 29 21l98 198q6 12 21 12zM510 791q-18 0 -33.5 -9t-23.5 -25l-97 -197l-223 -33q-18 -2 -31 -13t-19 -27q-12 -34 14 -60l164 -160l-38 -222q-6 -36 26 -58q16 -10 36 -10q15 0 30 7l195 103l195 -103q14 -7 30 -7q19 0 35 10q32 22 26 58
l-38 222l164 160q26 26 14 60q-5 16 -18.5 27t-30.5 13l-224 33l-97 197q-8 16 -23 25t-33 9v0z" />
    <glyph glyph-name="94" unicode="&#xe60c;" 
d="M906 -53q-23 0 -43 5.5t-39.5 20t-31 25.5t-32.5 33q-31 33 -50 49q-55 49 -142 49h-24h-21h-22h-21h-24q-87 0 -142 -49q-19 -16 -50 -49q-21 -22 -32.5 -33t-31 -25.5t-39.5 -20t-43 -5.5q-39 0 -63 27q-63 70 -33 338q10 90 35 158.5t59.5 107t71.5 57t76 18.5
q16 0 32.5 -4.5t26 -9.5t26.5 -16q24 -14 39.5 -21.5t49.5 -15.5t74 -8t74 8t49.5 15.5t39.5 21.5q17 11 26.5 16t26 9.5t32.5 4.5q39 0 76 -18.5t71.5 -57t59.5 -107t35 -158.5q30 -268 -33 -338q-24 -27 -63 -27zM568 162q100 0 164 -58q19 -17 51 -51q27 -27 40.5 -39.5
t36 -23.5t46.5 -11t39 17q53 59 25 312q-9 83 -31 146t-52 98t-61.5 52t-65.5 17q-26 0 -69 -25q-25 -16 -42 -24t-55 -17t-82 -9t-82 9t-55 17t-42 24q-43 25 -69 25q-34 0 -65.5 -17t-61.5 -52t-52 -98t-31 -146q-28 -253 25 -312q15 -17 39 -17t46.5 11t36 23.5
t40.5 39.5q32 34 51 51q24 21 49 34t51.5 17.5t44 5.5t44.5 0h20h22h20q16 1 25 1zM812 447q0 -20 -14.5 -34.5t-34.5 -14.5t-34 14.5t-14 34.5t14 34t34 14t34.5 -14t14.5 -34zM812 253q0 -20 -14.5 -34t-34.5 -14t-34 14t-14 34t14 34.5t34 14.5t34.5 -14.5t14.5 -34.5z
M860 302q-20 0 -34 14t-14 34t14 34t34 14t34 -14t14 -34t-14 -34t-34 -14zM667 302q-20 0 -34.5 14t-14.5 34t14.5 34t34.5 14t34 -14t14 -34t-14 -34t-34 -14zM387 382h-81v81q0 13 -9.5 22.5t-22.5 9.5t-22.5 -9.5t-9.5 -22.5v-81h-81q-13 0 -22.5 -9.5t-9.5 -22.5
t9.5 -22.5t22.5 -9.5h81v-81q0 -13 9.5 -22.5t22.5 -9.5t22.5 9.5t9.5 22.5v81h81q13 0 22.5 9.5t9.5 22.5t-9.5 22.5t-22.5 9.5z" />
    <glyph glyph-name="xiazai" unicode="&#xe636;" 
d="M896 -50q0 -14 -10 -24t-24 -10h-701q-14 0 -23.5 10t-9.5 24v0q0 14 9.5 23.5t23.5 9.5h701q14 0 24 -9.5t10 -23.5v0zM512 44q-14 0 -24 10t-10 24v572q0 14 10 24t24 10v0q14 0 23.5 -10t9.5 -24v-572q0 -14 -9.5 -24t-23.5 -10v0zM535 54q-9 -9 -23 -9t-24 9
l-252 252q-10 10 -10 24t10 24v0q10 9 24 9t24 -9l251 -252q10 -10 10 -24t-10 -24v0zM488 54q-10 10 -10 24t10 24l252 252q10 9 23.5 9t23.5 -9v0q10 -10 10 -24t-10 -24l-252 -252q-9 -9 -23 -9t-24 9v0z" />
    <glyph glyph-name="iconfontpingguo" unicode="&#xe61f;" 
d="M638 589q21 24 31.5 58t11.5 56v22q-9 -1 -23.5 -4t-48.5 -18.5t-55 -40.5q-13 -15 -22.5 -34.5t-13 -36.5t-5.5 -32t-2 -24v-8q9 1 23.5 3.5t48.5 18.5t55 40v0zM740 273q0 51 25.5 94t68.5 67q-28 40 -73 64t-83 24q-33 0 -93 -20.5t-67 -20.5t-56 18.5t-88 19.5
q-32 0 -66 -11t-68.5 -42t-50.5 -77q-17 -50 -20.5 -109t11 -128t47.5 -131q78 -147 153 -147q24 0 75 18t73 18t65.5 -18t67.5 -18q33 0 67 24.5t61 65.5q15 23 32 56.5t25 55.5l9 21q1 3 1 6q-52 20 -84 66.5t-32 103.5v0zM740 273z" />
    <glyph glyph-name="home" unicode="&#xe645;" 
d="M1024 204l-192 192v288h-128v-160l-192 192l-512 -512v-32h128v-320h320v192h128v-192h320v320h128v32z" />
    <glyph glyph-name="erweima1" unicode="&#xe618;" 
d="M190 622h70v-70h-70v70zM386 748h-322v-322h126v-56h70v56h126v70h56v56h-56v196zM316 496h-182v182h182v-182zM190 48h70v-70h-70v70zM764 622h70v-70h-70v70zM512 306v-76h70v70h56v70h-56v56h-70v-56v-64zM512 50v-72h70v72v54h56v70h-58h-68v-60v-64zM582 -22h56v-56
h-56v56zM442 -78v-70h74h66v70h-66h-74zM708 104h-70v-54v-72h70h56v70h-56v56zM764 -148h72h64h60v70h-60h-66v56h-70v-56v-70zM960 300v70h-60h-66v-70h66h60zM890 48h70v-70h-70v70zM442 496h70v-70h-70v70zM764 370v56h196v322h-322v-70h-58h-68v-56h68h58v-70h-56v-56
h56v-70h70v-56h56zM708 678h182v-182h-182v182zM708 230h56v-56h-56v56zM834 104h-70v-56h72h54v66v60h70v56h-60h-66v-52v-74zM442 622h70v-70h-70v70zM260 300h56v-70h-56v70zM442 370h-54h-72v-70h70v-70h56v76v64zM386 -22v126h56v70h-54h-198v68v58h-58h-68v-70h70v-56
h-70v-322h322v70h56v56h-56zM316 -78h-182v182h182v-182zM442 230h70v-56h-70v56zM638 300h70v-70h-70v70zM764 300h70v-70h-70v70z" />
    <glyph glyph-name="xiajiantou1" unicode="&#xe602;" 
d="M534 239h0.5h0.5l218 216q8 8 8 19t-8 19t-19 8t-18 -8l-200 -198l-198 199q-8 8 -19 8t-18.5 -7.5t-8 -18.5t7.5 -19l216 -218h1v0q8 -8 19 -8t18 8v0z" />
    <glyph glyph-name="jia" unicode="&#xe62f;" horiz-adv-x="1044" 
d="M891 -62q-74 -73 -169.5 -111.5t-200 -38.5t-199.5 38.5t-169 111t-113.5 166t-39.5 196.5t39.5 196.5t113.5 166t169 111t199.5 38.5t200 -38.5t169.5 -111.5q100 -98 135.5 -230t0 -264t-135.5 -230zM836 605q-63 63 -144 96.5t-170 33.5t-170 -33.5t-144 -96.5
t-96.5 -144t-33.5 -170t33.5 -170.5t96.5 -144.5t144 -96.5t170 -33.5t170 33.5t144 96.5q85 86 115.5 200.5t0 229t-115.5 199.5zM763 252h-203v-203q0 -12 -8.5 -20.5t-20.5 -8.5h-19q-12 0 -20.5 8.5t-8.5 20.5v203h-203q-12 0 -20.5 8.5t-8.5 20.5v19q0 12 8.5 20.5
t20.5 8.5h203v203q0 12 8.5 20.5t20.5 8.5h19q12 0 20.5 -8.5t8.5 -20.5v-203h203q12 0 20.5 -8.5t8.5 -20.5v-19q0 -12 -8.5 -20.5t-20.5 -8.5z" />
    <glyph glyph-name="shouji" unicode="&#xe603;" 
d="M759 -212h-494q-22 0 -37.5 15.5t-15.5 37.5v918q0 22 15.5 37.5t37.5 15.5h494q22 0 37.5 -15.5t15.5 -37.5v-918q0 -22 -15.5 -37.5t-37.5 -15.5zM512 -159q15 0 25 10.5t10 25t-10 25t-25 10.5t-25 -10.5t-10 -25t10 -25t25 -10.5zM759 706h-17h-460h-17v-741h17h460
h17v741z" />
    <glyph glyph-name="iconfontwangyi" unicode="&#xe640;" 
d="M389 712q-38 -8 -49.5 -17t-11.5 -32q0 -19 7 -21.5t47 3.5q53 8 154.5 6t125.5 -12q26 -10 38.5 -33t17.5 -70q6 -53 -12 -76t-66 -23q-11 0 -36 -0.5t-63.5 -2t-62.5 -2.5q-32 -1 -50 -1t-36.5 1.5t-27.5 3.5t-18.5 9t-12.5 13t-6.5 20.5t-4 28t-0.5 37.5q-2 74 -8 85
q-9 13 -28.5 10.5t-28.5 -18.5q-8 -17 -9 -74.5t7 -98.5q9 -48 29.5 -67t68.5 -22q49 -4 48 -12q0 -3 -4 -8q-22 -26 -82 -50t-105 -24q-35 0 -51 -13t-8 -37q15 -50 191 13q29 11 79.5 51t66.5 65q7 12 11.5 16t16.5 8t32 2.5t58 0.5q93 -1 130 11t52 49q14 33 15 60.5
t-11 74.5q-19 79 -39.5 102.5t-85.5 40.5q-34 9 -135.5 10t-142.5 -7v0zM386 562q-9 -13 -6 -30q3 -13 24 -16t106 -3l126 1l3 28q1 1 1 4q3 20 -11 23t-98 4h-24q-110 1 -121 -11v0v0zM562 345q-14 -5 -18 -12.5t-1 -21.5q3 -17 -14.5 -33.5t-93.5 -66.5q-109 -74 -173 -92
q-43 -13 -68 -22t-37.5 -18.5t-12 -19t11.5 -21.5q32 -38 156.5 25t276.5 194q33 28 60 27t41 -31q8 -16 17.5 -22t29.5 -6q35 0 54.5 -24t16.5 -61.5t-29 -75.5q-39 -57 -99 -79.5t-108 1.5q-21 12 -27.5 12t-10.5 -11q-6 -14 6.5 -44t31.5 -48q28 -26 100 -3t132 77
q39 35 54.5 65t19.5 77q7 85 -50 153t-144 78q-68 8 -73 8q-26 4 -49 -5v0v0zM604 166q-201 -159 -364 -203q-32 -9 -45.5 -29t-2 -36.5t42.5 -16.5q29 0 98.5 30t115.5 62q23 16 45 28t29 12t12 4t5 9q0 13 58 64q71 61 82 74.5t1 26.5q-12 15 -24 11t-53 -36v0z" />
    <glyph glyph-name="icon72" unicode="&#xe649;" 
d="M219 223h6q12 3 19.5 13.5t4.5 22.5q-5 26 -5 53q0 65 28.5 122t78.5 96q10 -30 30 -37q3 -1 8 -3q25 -11 47 -11q7 -1 17 -15q6 -33 6 -44q0 -12 5 -38q1 -11 2 -16q2 -19 20 -24q4 -1 8 -1q14 0 30 18q6 7 18 23q9 10 11 12q1 1 4 3q34 20 37 43q1 8 0 37v32q9 8 27 18
l52 15q85 -56 113 -153q3 -12 14.5 -18t23.5 -2.5t18 14.5t3 23q-15 53 -47 98q-30 44 -73 77q-91 68 -205 68q-68 0 -131 -26q-61 -26 -107.5 -72.5t-72.5 -107.5q-26 -63 -26 -131q0 -33 6 -64q2 -11 10.5 -18t19.5 -7zM603 575q-3 -1 -5 -2q-10 -6 -21 -12
q-25 -18 -31 -31q-4 -11 -3 -55q1 -20 0 -25q-3 -3 -12 -9q-7 -4 -10 -6q-4 -3 -11 -11q0 19 -8 55q-1 5 -3 9q-27 42 -62 42q-13 0 -29 7q-4 2 -6 2q-4 6 -7 19q59 30 125 30q43 0 83 -13zM960 412.5q-8 34.5 -60 49.5q-10 3 -19.5 -2t-12.5 -15t2 -19.5t16 -12.5
q20 -6 24 -12q-1 -9 -19 -25q-26 -22 -77 -47q-110 -54 -273.5 -92t-286.5 -38v0q-56 0 -90 9q-23 6 -27 13q0 9 21 26q8 7 9 17.5t-6 18.5t-17.5 9t-18.5 -6q-47 -39 -38 -76q8 -35 59 -50q31 -9 79 -12q0 -1 1 -1q44 -79 121 -125q80 -48 173 -48q136 0 234 94
q97 92 104 226q45 24 71 48q39 36 31 70.5zM508 36l24 20l43 5q13 1 19 13l10 17l8 -18l-6 -24q-41 -14 -86 -14q-6 0 -12 1zM665 76q0 6 -3 12l-34 71q-7 14 -23 14.5t-23 -13.5l-26 -50l-37 -4q-8 -1 -14 -6l-56 -46q-3 -3 -6 -8q-90 27 -146 103q116 6 255 38
q135 32 240 76q-10 -59 -43.5 -107.5t-83.5 -79.5z" />
    <glyph glyph-name="gouwuche" unicode="&#xe60a;" 
d="M1022 612q0 17 -12.5 29.5t-30.5 12.5h-713q-8 0 -15 -3l-38 118q-5 15 -18.5 23t-29.5 5h-1h-119q-18 0 -30.5 -12t-12.5 -29.5t12.5 -30t30.5 -12.5h97l169 -522l-124 -152q-11 -14 -9 -31.5t16 -28.5q17 -14 39 -7h721q17 0 29.5 12.5t12.5 30t-12.5 29.5t-29.5 12
h-643l69 84h463q18 0 30 12t13 30v0l133 400q4 10 2 21q1 4 1 9v0zM811 225h-421l-113 345h649zM520 309q18 0 30.5 12t12.5 30v109q0 18 -12.5 30t-30 12t-30 -12t-12.5 -30v-109q0 -18 12.5 -30t29.5 -12v0zM707 309q18 0 30.5 12t12.5 30v109q0 18 -12.5 30t-30 12
t-30 -12t-12.5 -30v-109q0 -18 12.5 -30t29.5 -12v0zM325 -87q-28 0 -48 -19.5t-20 -47.5t20 -48t48 -20t48 20t20 48t-20 47.5t-48 19.5v0zM852 -87q-28 0 -48 -19.5t-20 -47.5t20 -48t48 -20t48 20t20 48t-20 47.5t-48 19.5v0zM852 -87z" />
    <glyph glyph-name="zhuanji" unicode="&#xe675;" 
d="M512 -148q-91 0 -174 35.5t-143 95.5t-95.5 143t-35.5 174t35.5 174t95.5 143t143 95.5t174 35.5t174 -35.5t142.5 -95.5t95 -143t35.5 -174t-35.5 -174t-95 -143t-142.5 -95.5t-174 -35.5zM511.5 692q-106.5 0 -196.5 -52.5t-142.5 -143t-52.5 -196.5t52.5 -196.5
t142.5 -143t196.5 -52.5t197 52.5t143 143t52.5 196.5t-52.5 196.5t-143 143t-197 52.5zM512 160q-58 0 -99 41t-41 99t41 99t99 41t99 -41t41 -99t-41 -99t-99 -41zM511.5 384q-34.5 0 -59 -24.5t-24.5 -59.5t24.5 -59.5t59 -24.5t59.5 24.5t25 59.5t-25 59.5t-59.5 24.5z
M253 360l-59 -12q15 102 86.5 176t172.5 92l-7 -58q-72 -19 -124 -72t-69 -126z" />
    <glyph glyph-name="xiao31" unicode="&#xe884;" 
d="M509.5 587q-63.5 0 -108.5 -45t-45 -108.5t45 -108t108.5 -44.5t108.5 44.5t45 108t-45 108.5t-108.5 45zM509.5 319q-47.5 0 -81 33.5t-33.5 81t33.5 81t81 33.5t81 -33.5t33.5 -81t-33.5 -81t-81 -33.5zM509.5 757q-93.5 0 -173 -43.5t-125.5 -118t-46 -161.5
q0 -50 15 -96q0 -1 1 -1q11 -35 31 -67l281 -422q5 -9 16 -9v0q10 0 16 9l281 422q20 31 32 67l1 1q15 46 15 96q0 87 -46 161.5t-125.5 118t-173 43.5zM803 351l-1 -1q-10 -32 -28 -59l-265 -398l-264 398q-18 28 -28 59q-14 40 -14 84q0 117 90 200.5t216.5 83.5
t216.5 -83.5t90 -200.5q0 -43 -13 -83z" />
    <glyph glyph-name="geciduiqidiaozheng" unicode="&#xe710;" 
d="M834 363q15 0 25.5 10.5t10.5 24.5v18q0 15 -10.5 25.5t-25.5 10.5h-645q-14 0 -24.5 -10.5t-10.5 -25.5v-18q0 -14 10.5 -24.5t24.5 -10.5h645zM924 667h-824q-15 0 -25.5 -10.5t-10.5 -25.5v-18q0 -15 10.5 -25t25.5 -10h824q14 0 24.5 10t10.5 25v18q0 15 -10.5 25.5
t-24.5 10.5zM834 22h-645q-14 0 -24.5 -10.5t-10.5 -24.5v-18q0 -15 10.5 -25.5t24.5 -10.5h645q15 0 25.5 10.5t10.5 25.5v18q0 14 -10.5 24.5t-25.5 10.5zM924 237h-824q-15 0 -25.5 -10.5t-10.5 -25.5v-17q0 -15 10.5 -25.5t25.5 -10.5h824q14 0 24.5 10.5t10.5 25.5v17
q0 15 -10.5 25.5t-24.5 10.5z" />
    <glyph glyph-name="jinlingyingcaiwangtubiao97" unicode="&#xe786;" 
d="M971 294l-214 266q-6 8 -15 8h-146v-39h137l204 -254v-366q0 -12 -10 -20.5t-25 -8.5h-780q-15 0 -25 8.5t-10 20.5v363l211 257h130v39h-139q-9 0 -15 -7l-221 -270q-5 -5 -5 -12v-370q0 -28 21.5 -47.5t52.5 -19.5h780q30 0 51.5 19.5t21.5 47.5v373q1 7 -4 12z
M390 -80h264q29 0 50 20.5t21 50.5v130q0 29 -21 49.5t-50 20.5h-264q-29 0 -49.5 -20.5t-20.5 -49.5v-130q0 -30 20.5 -50.5t49.5 -20.5zM654 -41h-264q-13 0 -22.5 9t-9.5 23v118l164 -100l164 100v-118q0 -14 -9.5 -23t-22.5 -9zM654 153q10 0 19 -7l-151 -92l-150 92
q9 7 18 7h264zM404 467q-5 6 -13 7t-14.5 -4t-7 -13t4.5 -14l128 -163q6 -7 15 -7t15 7l129 163q5 6 4 14t-7.5 13t-14.5 4t-13 -7l-94 -120v368q0 8 -5.5 13.5t-13.5 5.5t-13.5 -5.5t-5.5 -13.5v-368zM350.5 470q-6.5 5 -14 4t-12.5 -8l-153 -203q-8 -10 -2.5 -20.5
t17.5 -10.5h189q8 0 13.5 5.5t5.5 13.5t-5.5 13.5t-13.5 5.5h-151l130 173q5 7 4 14.5t-7.5 12.5zM644 251q0 -8 6 -13.5t13 -5.5h190q12 0 17 10.5t-2 20.5l-153 203q-5 7 -13 8t-14 -4t-7.5 -13t3.5 -14l130 -173h-150q-8 0 -14 -5.5t-6 -13.5z" />
    <glyph glyph-name="yewuicon0101" unicode="&#xe628;" 
d="M512 735q-91 0 -173.5 -35.5t-142.5 -95.5t-95.5 -142.5t-35.5 -173.5t35.5 -173.5t95.5 -142.5t142.5 -95.5t173.5 -35.5t173.5 35.5t142.5 95.5t95.5 142.5t35.5 173.5t-35.5 173.5t-95.5 142.5t-142.5 95.5t-173.5 35.5zM812 -12q-59 -59 -135 -91q-79 -33 -165 -33
t-165 33q-76 32 -135 91t-91 135q-33 79 -33 165t33 165q32 76 91 135t135 91q79 33 165 33t165 -33q76 -32 135 -91t91 -135q33 -79 33 -165t-33 -165q-32 -76 -91 -135zM748 599l-3 -4q-174 -213 -224 -276q-10 -11 -22 -10q-6 1 -8 5q-62 82 -211 280q0 1 -4 5
q-6 -5 -15 -11v-1l1 -1l1 -1l1 -1v-1l1 -1l1 -1l1 -1v-1l1 -1l1 -1l1 -1v-1l1 -1l1 -1l1 -1v-1l1 -1l1 -1l1 -1v-1l1 -1l1 -1l1 -1l1 -1v-1l1 -1l1 -1l1 -1v-1l1 -1l1 -1l1 -1v-1l1 -1l1 -1l1 -1v-1l1 -1l1 -1l1 -1v-1l1 -1l1 -1l1 -1v-1l2 -2v-1l1 -1l1 -1l1 -1v-1l1 -1
l1 -1l1 -1v-1l1 -1l1 -1l1 -1v-1l1 -1l1 -1l1 -1v-1l1 -1l1 -1l1 -1v-1l1 -1l1 -1l1 -1v-1l1 -1l1 -1l1 -1v-1l1 -1l1 -1l1 -1v-1l1 -1l1 -1l1 -1v-1l1 -1l1 -1l1 -1v-1l1 -1l1 -1l1 -1v-1l1 -1l1 -1l1 -1v-1l1 -1l1 -1l1 -1v-1l1 -1l1 -1l1 -1v-1l1 -1l1 -1l1 -1v-1l1 -1
l1 -1l1 -1v-1l1 -1l1 -1l1 -1v-1l1 -1l1 -1l1 -1v-1l1 -1l1 -1l1 -1v-1l1 -1l1 -1l1 -1v-1l1 -1l1 -1l1 -1v-1l1 -1l1 -1l1 -1v-1l1 -1l1 -1l1 -1v-1l1 -1l1 -1l1 -1v-1l1 -1l1 -1l1 -1v-1l1 -1l1 -1l1 -1v-1l1 -1l1 -1l1 -1v-1l1 -1l1 -1l1 -1v-1l1 -1l1 -1l1 -1v-1l1 -1
l1 -1l1 -1v-1l1 -1l1 -1l1 -1v-1l1 -1l1 -1l1 -1v-1l1 -1l1 -1l1 -1v-1l1 -1l1 -1l1 -1v-1l1 -1l1 -1l1 -1v-1l1 -1l1 -1l1 -1v-1l1 -1l1 -1l1 -1v-1l1 -1l1 -1l1 -1v-1l1 -1l1 -1l1 -1v-1l1 -1l1 -1l1 -1v-1l1 -1l1 -1l1 -1v-1l1 -1l1 -1l1 -1v-1l1 -1l1 -1l1 -1v-1l1 -1
l1 -1l1 -1v-1l1 -1l1 -1l1 -1v-1l1 -1l1 -1l1 -1v-1l1 -1l1 -1l1 -1v-1l1 -1l1 -1l1 -1v-1l1 -1l1 -1l1 -1v-1l1 -1l1 -1l1 -1v-1l1 -1l1 -1l1 -1v-1l1 -1l1 -1l1 -1v-1l1 -1l1 -1l1 -1v-1l1 -1l1 -1l1 -1v-1l1 -1l1 -1l1 -1v-1l1 -1l1 -1l1 -1v-1l1 -1l1 -1l1 -1v-1l2 -2
h-157v-18h6h159l16 -1v-89h-182v-12q0 -5 1 -5.5t6 -0.5h168h7v-272h19v272h7h162q9 0 10.5 1t1.5 10q0 7 -7 7h-168h-6v90h180v19h-156l1 1l1 1l1 1v1l1 1l1 1l1 1l1 1l1 1v1l1 1l1 1l1 1l1 1v1l1 1l1 1l1 1l1 1l1 1v1l1 1l1 1l1 1l1 1v1l1 1l1 1l1 1l1 1l1 1v1l1 1l1 1
l1 1l1 1v1l1 1l1 1l1 1l1 1l1 1v1l1 1l1 1l1 1l1 1v1l1 1l1 1l1 1l1 1v1l1 1l1 1l1 1l1 1l1 1v1l1 1l1 1l1 1l1 1v1l1 1l1 1l1 1l1 1l1 1v1l1 1l1 1l1 1l1 1v1l1 1l1 1l1 1l1 1v1l1 1l1 1l1 1l1 1l1 1v1l1 1l1 1l1 1l1 1l1 1v1l1 1l1 1l1 1l1 1l1 1v1l1 1l1 1l1 1l1 1v1l1 1
l1 1l1 1l1 1l1 1v1l1 1l1 1l1 1l1 1v1l1 1l1 1l1 1l1 1l1 1v1l1 1l1 1l1 1l1 1v1l1 1l1 1l1 1l1 1l1 1v1l1 1l1 1l1 1l1 1v1l1 1l1 1l1 1l1 1v1l1 1l1 1l1 1l1 1l1 1v1l1 1l1 1l1 1l1 1v1l1 1l1 1l1 1l1 1l1 1v1l1 1l1 1l1 1l1 1v1l1 1l1 1l1 1l1 1v1l1 1l1 1l1 1l1 1l1 1v1
l1 1l1 1l1 1l1 1v1l1 1l1 1l1 1l1 1l1 1v1l1 1l1 1l1 1l1 1v1l1 1l1 1l1 1l1 1v1l1 1l1 1l1 1l1 1l1 1v1l1 1l1 1l1 1l1 1v1l1 1l1 1l1 1l1 1l1 1v1l1 1l1 1l1 1l1 1v1l1 1l1 1l1 1l1 1v1l1 1l1 1l1 1l1 1l1 1v1l1 1l1 1l1 1l1 1v1l1 1l1 1l1 1l1 1l1 1v1l1 1l1 1l1 1l1 1v1
l1 1l1 1l1 1l1 1v1l1 1l1 1l1 1l1 1l1 1v1l1 1l1 1l1 1l1 1v1l1 1l1 1l1 1l1 1l1 1v1l1 1l1 1l1 1l1 1v1l1 1l1 1l1 1l1 1v1l1 1q-3 3 -15 12z" />
    <glyph glyph-name="pause" unicode="&#xe63d;" 
d="M512 -210q-101 0 -193 39.5t-159 106.5t-106.5 159t-39.5 193t39.5 193t106.5 159t159 106.5t193 39.5t193 -39.5t159 -106.5t106.5 -159t39.5 -193t-39.5 -193t-106.5 -159t-159 -106.5t-193 -39.5zM512 757q-95 0 -182 -37t-150 -100t-100 -150t-37 -182t37 -182
t100 -150t150 -100t182 -37t182 37t150 100t100 150t37 182t-37 182t-100 150t-150 100t-182 37zM405 486zM369 486h71v-396h-71v396zM619 486zM584 486h71v-396h-71v396z" />
    <glyph glyph-name="shijian" unicode="&#xe632;" 
d="M512 281q-8 0 -13.5 5.5t-5.5 13.5v384q0 8 5.5 13.5t13.5 5.5t13.5 -5.5t5.5 -13.5v-384q0 -8 -5.5 -13.5t-13.5 -5.5zM512 -180q-97 0 -186 38t-153.5 102.5t-102.5 153.5t-38 186t38 186t102.5 153.5t153.5 102.5t186 38t186 -38t153.5 -102.5t102.5 -153.5t38 -186
t-38 -186t-102.5 -153.5t-153.5 -102.5t-186 -38zM512 742q-90 0 -171.5 -35t-141 -94.5t-94.5 -141t-35 -171.5t35 -171.5t94.5 -141t141 -94.5t171.5 -35t171.5 35t141 94.5t94.5 141t35 171.5t-35 171.5t-94.5 141t-141 94.5t-171.5 35zM794 281h-282q-8 0 -13.5 5.5
t-5.5 13.5t5.5 13.5t13.5 5.5h282q8 0 13.5 -5.5t5.5 -13.5t-5.5 -13.5t-13.5 -5.5z" />
    <glyph glyph-name="meiyingbao" unicode="&#xe60d;" 
d="M836 462q6 27 6 56q0 108 -77 184.5t-185 76.5q-95 0 -167 -60t-90 -151q-1 -5 -2 -8q-10 -3 -24.5 -0.5t-24.5 5.5l-9 3l-43 6l13 -116q-4 -3 -10.5 -8.5t-23.5 -23.5t-30.5 -36t-25.5 -45t-13 -52q-55 -7 -66 -10q-30 -8 -28 -41v-147q1 -3 2.5 -9t9.5 -16t20 -10h37.5
h21.5l3.5 -8t6 -13t7.5 -15.5t9.5 -18t11 -18.5t13 -19.5t14.5 -18t16 -16.5t18 -13t19 -9v-58q1 -11 11.5 -21.5t21.5 -10.5h121q11 0 18.5 8.5t9.5 17.5l1 9h209q0 -4 1.5 -10t10.5 -15.5t25 -9.5h107q2 0 11 4t18.5 15t9.5 23v36q8 5 20 15t43.5 42t54 66.5t38.5 87
t11 104.5t-42.5 118t-108.5 130zM438 242q-3 -11 -15 -11q-13 0 -17 10l-1.5 5.5t-2.5 7.5t-3 6.5t-4.5 6t-6.5 4.5t-9.5 4t-13.5 1q-8 -1 -14 -5.5t-8 -9t-4.5 -12.5l-2.5 -8q-1 -6 -8 -10q-3 -1 -9.5 -1t-9.5 1q-4 3 -5 11q1 2 -0.5 9.5t2 17.5t9 19t20.5 15.5t35 6.5
q21 0 35.5 -7t20.5 -16.5t10 -19.5t2.5 -16.5t-0.5 -8.5zM754 408q-12 -1 -58.5 -4.5t-60 -4t-50.5 -2t-59 0t-55.5 4t-66.5 7.5q-32 5 -32 110q0 86 60.5 146.5t146.5 60.5t146.5 -60.5t60.5 -146.5q0 -4 0.5 -19t0 -21.5t-1 -19.5t-2.5 -20t-5.5 -15t-9.5 -12t-14 -4z
M701 572q25 2 26 25q-1 21 -26 23h-57q12 28 13.5 46t-18.5 21q-21 2 -28 -16q-5 -20 -15 -48v-1q-1 -1 -1 -2h-29q-17 38 -33 59q-14 15 -33 7q-18 -10 -10 -28q5 -8 11 -22q7 -9 10 -16h-50q-22 -2 -23 -23q1 -23 23 -25h94v-51h-91q-23 -2 -25 -23q2 -21 23 -23h93v-45
q2 -25 27 -26q24 3 26 28v43h91q22 2 23 23q-1 21 -23 23h-91v51h93v0z" />
    <glyph glyph-name="qq01" unicode="&#xe641;" 
d="M512 561q-84 0 -143 -72q-61 -73 -64 -182q0 -5 -2 -9v0q-8 -12 -8 -14q-1 -1 -4 -6.5t-5 -8.5q-16 -34 -20 -70q-4 -26 3 -33v0q0 1 1 1q6 3 15 11q6 6 11 14q4 5 11 6.5t12 -2.5q5 -5 6 -8v0q5 -13 14 -31q8 -16 17 -29q4 -6 3 -13t-7 -10l-5 -3q-17 -6 -27 -15
q-7 -7 -7 -12q0 -12 26 -24q32 -15 79 -15q26 0 50 5q23 5 37 14q10 5 18 0q16 -9 37 -14q22 -5 50 -5q46 0 79 15q25 12 25 24q0 5 -6 12q-11 9 -28 15q-16 6 -10 22v1l1 2v0q2 3 18 29q6 10 14 31q2 7 8.5 10t12.5 0q7 -3 9 -6q6 -8 10 -12q8 -10 15 -12l1 -1v0q6 6 3 33
q-4 34 -20 69h-1q-6 13 -8 15q-2 3 -5 8.5l-3 5.5q-2 5 -2 9q-3 107 -64 182q-66 73 -147 73v0zM343 511q69 85 169 85t169 -85q67 -82 71 -198q6 -11 7 -12q1 -2 3 -5t3.5 -6t2.5 -6q0 -1 1 -1q20 -41 23 -79q6 -44 -13 -61q0 -1 -1.5 -1.5t-1.5 -1.5q-14 -10 -33 -3
q-12 5 -22 15q-3 -7 -5 -9q-1 -3 -4 -8t-4 -8q11 -5 21 -15q17 -17 17 -36q0 -33 -44 -55q-39 -17 -92 -17q-31 0 -57 7q-22 4 -39 13q-15 -8 -39 -13q-28 -7 -58 -7q-53 0 -92 17q-44 20 -44 55q0 19 17 36q10 9 21 15q-5 7 -9 16q0 1 -2 4.5t-3 5.5q-10 -10 -21 -15
q-19 -8 -33 3q-1 1 -2 1.5t-1 1.5q-19 17 -14 61q4 38 24 79l9 18q6 8 8 11q1 55 21 109.5t47 88.5zM268 167v0v0zM756 167v0v0z" />
    <glyph glyph-name="fenxiang" unicode="&#xe648;" 
d="M493 580h-362v-660h709v313h49v-362h-808v758h412v-49zM608 715l17 46l346 -132l-28 -42zM929 645l42 -16l-197 -297l-41 28l191 287zM943 587l28 42v0l-28 -42v0v0zM971 629l-42 16l42 -16v0v0v0zM411 32l-49 4q0 8 2 22.5t10.5 56.5t20 83t34 95t51 100.5t72 93t95 78
t122.5 50t153 14.5l-2 -49q-74 3 -138 -13.5t-110.5 -45t-86 -70t-65.5 -84t-46.5 -91.5t-31.5 -87t-18.5 -77t-9.5 -54.5t-3 -25.5v0v0z" />
    <glyph glyph-name="mulu1" unicode="&#xe639;" 
d="M512 812q-104 0 -199 -40.5t-163.5 -109t-109 -163.5t-40.5 -199t40.5 -199t109 -163.5t163.5 -109t199 -40.5t199 40.5t163.5 109t109 163.5t40.5 199t-40.5 199t-109 163.5t-163.5 109t-199 40.5zM512 -168q-95 0 -181.5 37.5t-149 100t-99.5 149t-37 181.5t37 181.5
t99.5 149t149 99.5t181.5 37t181.5 -37t149 -99.5t99.5 -149t37 -181.5t-37 -181.5t-99.5 -149t-149 -100t-181.5 -37.5zM283 444q23 0 36 21h451q9 0 16 7t7 16.5t-7 16.5t-16 7h-451q-13 21 -36 21q-19 0 -32 -13t-13 -31.5t13 -31.5t32 -13zM770 324h-451q-13 20 -36 20
q-19 0 -32 -13t-13 -31t13 -31t32 -13q23 0 36 20h451q9 0 16 7t7 17t-7 17t-16 7zM770 132h-451q-13 21 -36 21q-19 0 -32 -13t-13 -31.5t13 -31.5t32 -13q23 0 36 21h451q9 0 16 7t7 16.5t-6.5 16.5t-16.5 7z" />
    <glyph glyph-name="xiangji" unicode="&#xe6ed;" 
d="M521 425q-71 0 -122 -51t-51 -123t51 -123t122.5 -51t122.5 51t51 123t-51 123t-123 51v0zM891 574h-163l-64 83q-6 7 -15 7h-265q-9 0 -15 -8l-60 -82h-176q-28 0 -48 -20t-20 -48v-504q0 -28 20 -48t48 -20h758q28 0 48 20t20 48v504q0 28 -20 48t-48 20v0zM521 40
q-87 0 -149 62t-62 149t62 149t149.5 62t149 -62t61.5 -149t-61.5 -149t-149.5 -62v0zM811 416q-12 0 -20 8t-8 19t8 19t19.5 8t19.5 -8t8 -19t-8 -19t-19 -8v0zM811 416z" />
    <glyph glyph-name="iconfontqian" unicode="&#xe629;" 
d="M497 812q-101 0 -193 -39.5t-158.5 -106t-106 -159t-39.5 -193.5t39.5 -193t106 -158.5t158.5 -106t193 -39.5t193 39.5t158.5 106t106 158.5t39.5 193t-39.5 193.5t-106 159t-158.5 106t-193 39.5v0zM497 -130q-90 0 -172 35.5t-141.5 95t-95 141.5t-35.5 172.5
t35.5 172.5t95 141.5t141.5 95t172 35.5t172.5 -35.5t141.5 -95t94.5 -141.5t35.5 -172.5t-35.5 -172.5t-94.5 -141.5t-141.5 -95t-172.5 -35.5v0zM617 575l-79 -146q-31 -59 -38 -79h-2q-20 48 -117 225h-74l138 -238h-114v-52h133v-72h-133v-54h133v-105h66v105h128v54
h-128v72h128v52h-110l140 238h-71v0z" />
    <glyph glyph-name="fangdajing" unicode="&#xe621;" 
d="M984 -141l-303 303q93 105 93 246q0 101 -49.5 186t-134.5 134.5t-185.5 49.5t-186 -49.5t-135 -134.5t-49.5 -185.5t49.5 -186t135 -135t185.5 -49.5q141 0 246 93l303 -303q6 -7 15 -6.5t15.5 7t6.5 15t-6 15.5zM78 408.5q0 88.5 43.5 163.5t119 119t164 44t163.5 -44
t119 -119t44 -163.5t-44 -164t-119 -119t-163.5 -43.5t-164 43.5t-119 119t-43.5 164z" />
    <glyph glyph-name="10" unicode="&#xe638;" 
d="M296 455q23 0 39.5 -16t16.5 -39.5t-16.5 -39.5t-39.5 -16t-39.5 16t-16.5 39.5t16.5 39.5t39.5 16zM519.5 455q23.5 0 39.5 -16t16 -39.5t-16 -39.5t-39.5 -16t-39.5 16t-16 39.5t16 39.5t39.5 16zM743 455q23 0 39.5 -16t16.5 -39.5t-16.5 -39.5t-39.5 -16t-39.5 16
t-16.5 39.5t16.5 39.5t39.5 16zM827 735h-630q-55 0 -93.5 -38.5t-38.5 -92.5v-420q0 -54 38.5 -92.5t93.5 -38.5h262v-184l303 184h65q55 0 93.5 38.5t38.5 92.5v420q0 54 -38.5 92.5t-93.5 38.5zM903 184q0 -31 -22 -53t-54 -22h-65h-16l-13 -9l-218 -132v85v56h-56h-262
q-32 0 -54 22t-22 53v420q0 31 22 53t54 22h630q32 0 54 -22t22 -53v-420z" />
    <glyph glyph-name="chongzhi1" unicode="&#xe60e;" 
d="M773 2h-498v785h498v-785zM821 828q0 28 -20 48t-48 20h-458q-28 0 -48 -20t-20 -48v-884q0 -28 20 -48.5t48 -20.5h458q28 0 48 20.5t20 48.5v884zM449 845h147q6 0 6 -7t-6 -7h-147q-7 0 -7 7t7 7zM524 -94q-15 0 -24.5 10.5t-9.5 23.5q0 15 10.5 24.5t23.5 9.5
q15 0 24.5 -10t9.5 -24q0 -13 -10.5 -23.5t-23.5 -10.5zM678 592l-31 31l-106 -106q-8 -8 -19 -8t-19 8l-105 106l-31 -31l106 -106h-92v-41h119v-61h-119v-41h119v-198h41v198h119v41h-119v61h119v41h-92z" />
    <glyph glyph-name="liebiaoxunhuan" unicode="&#xe6f2;" 
d="M877 498q-82 82 -198 82h-294v56q0 14 -8 18t-19 -3l-136 -87q-11 -8 -11 -18t12 -17l134 -84q12 -7 20 -2.5t8 18.5v56h294q90 0 153.5 -63.5t63.5 -153.5q0 -30 -8 -58q-4 -13 2.5 -24.5t19.5 -14.5q4 -1 8 -1q11 0 19.5 6.5t11.5 16.5q10 36 10 75q0 116 -82 198z
M825 71l-135 84q-11 7 -19.5 2.5t-8.5 -18.5v-56h-317q-90 0 -153.5 63.5t-63.5 153.5q0 64 35 118q7 11 4 23.5t-13.5 19.5t-23.5 4.5t-20 -13.5q-45 -69 -45 -152q0 -116 82 -198t198 -82h317v-56q0 -14 8.5 -18t19.5 3l135 87q11 8 11 18t-11 17z" />
    <glyph glyph-name="liwu" unicode="&#xe68e;" horiz-adv-x="1140" 
d="M1139 540q0 37 -26.5 63t-63.5 26h-70q48 46 48 111t-46.5 110.5t-111.5 45.5q-109 0 -181 -169q-30 13 -66.5 13t-66.5 -13q-72 169 -181 169q-55 0 -97.5 -33.5t-55.5 -84.5q21 -4 44 -11q9 37 39.5 61t69.5 24q82 0 144 -152q-7 -10 -9 -22q5 1 7 1q-2 -1 -7 -3v-1.5
v-1.5q0 -20 21 -38v0h-1q-63 -20 -189 49q-65 35 -124 48t-94 9t-65.5 -18.5t-38.5 -21.5t-13 -14q-6 -7 -5 -16t8 -15t16.5 -5t15.5 9q3 3 10 9.5t31 16.5t53 12t78.5 -10.5t105.5 -42.5q107 -59 181 -59q12 0 28 3q0 -1 1 -2.5t1 -2.5h70v-178h-451v134q0 18 13.5 31
t32.5 13h149q-26 12 -47 24q-21 11 -44 21h-58q-38 0 -64.5 -26t-26.5 -63v-178h68v-401q0 -37 26.5 -63t63.5 -26h338h45h338q37 0 63.5 26t26.5 63v401h67v178v0zM599 -83h-338q-19 0 -32 13t-13 31v401h383v-445v0zM734 673q0 14 -9 27q62 152 144 152q46 0 79 -32.5
t33 -78.5t-33 -79t-79 -33h-164q29 19 29 44v0zM621 651q-13 0 -25 2q-4 6 -10 9q-10 5 -21 -1q-11 6 -11 12q0 10 19.5 16.5t47.5 6.5t48 -6.5t20 -16t-20 -16t-48 -6.5v0zM1027 -39q0 -18 -13.5 -31t-31.5 -13h-338v445h383v-401v0zM1094 406h-450v178h225h180
q19 0 32 -13t13 -31v-134v0zM1094 406z" />
    <glyph glyph-name="zzhihu" unicode="&#xe642;" 
d="M506 383h-154v243h138q8 0 13.5 5.5t5.5 13.5t-5.5 13.5t-13.5 5.5h-254q10 33 15 87q1 13 1 18q1 8 -4 14t-13 7t-14 -4t-7 -13q-1 -6 -2 -19q-2 -28 -5 -45t-12 -46t-30 -58t-53 -58q-6 -5 -6.5 -13t4.5 -14q6 -6 15 -6q7 0 12 5q58 52 85 111q5 -4 11 -4h81v-243h-180
q-8 0 -14 -5.5t-6 -13t6 -13t14 -5.5h179q-1 -48 -10.5 -91.5t-29.5 -89.5t-57.5 -85.5t-90.5 -66.5q-7 -3 -9.5 -10.5t0.5 -14.5q6 -10 18 -10q4 0 8 2q99 49 152.5 142t57.5 224h154q8 0 13.5 5.5t5.5 13t-5.5 13t-13.5 5.5zM395 219q-5 6 -13 7t-14 -4t-7 -13t4 -14
l114 -134q5 -7 14 -7q7 0 13 5t6.5 12.5t-4.5 13.5zM898 671h-280q-8 0 -13.5 -5.5t-5.5 -13.5v-563q0 -8 5.5 -13.5t13.5 -5.5h37l5 -57q2 -11 12 -15q4 -2 7 -2q7 0 12 4l89 70h118v0q8 0 13.5 5.5t5.5 13.5v563q0 8 -5.5 13.5t-13.5 5.5zM879 108h-105v0q-7 0 -12 -4
l-67 -53l-4 40q-1 7 -6.5 12t-12.5 5h-35v525h242v-525z" />
    <glyph glyph-name="qitoujine" unicode="&#xe60f;" 
d="M519.5 -120q-101.5 0 -194 39.5t-159 106.5t-106.5 159t-40 193.5t40 194t106.5 159.5t159 106.5t194 39.5t194 -39.5t159.5 -106.5t106.5 -159.5t39.5 -194t-39.5 -193.5t-106.5 -159t-159.5 -106.5t-194 -39.5zM520 827q-91 0 -174 -35.5t-143 -95.5t-95.5 -143
t-35.5 -174t35.5 -174t95.5 -143t143 -95.5t174 -35.5t173.5 35.5t143 95.5t96 143t35.5 174t-35.5 174t-96 143t-143 95.5t-173.5 35.5zM520 54q-17 0 -28.5 12t-11.5 28v401q0 17 11.5 28.5t28 11.5t28.5 -11.5t12 -28.5v-400q0 -17 -12 -29t-28 -12v0zM520 54zM680 375
h-321q-16 0 -28 11.5t-12 28.5t12 28.5t28 11.5h321q16 0 28 -11.5t12 -28.5t-12 -28.5t-28 -11.5v0zM680 375zM520 455q-17 0 -28.5 12t-11.5 28.5t11 27.5l160 161q12 11 28.5 11t28.5 -11.5t12 -28t-12 -28.5l-160 -160q-12 -12 -28 -12v0zM520 455zM520 455
q-17 0 -28 12l-161 160q-11 12 -11 28.5t11.5 28.5t28 12t28.5 -12l160 -160q12 -12 12 -28.5t-12 -28.5t-28 -12v0zM520 455zM680 215h-321q-16 0 -28 11.5t-12 28t12 28.5t28 12h321q16 0 28 -12t12 -28.5t-12 -28t-28 -11.5v0zM680 215z" />
    <glyph glyph-name="mulu1" unicode="&#xe664;" 
d="M303 554h66v-41h-66v41zM401 554h312v-41h-312v41zM303 384h66v-41h-66v41zM401 384h312v-41h-312v41zM303 214h66v-41h-66v41zM401 214h312v-41h-312v41zM344 767q-68 0 -116 -48t-48 -116v-600h498q67 0 115.5 48t48.5 116v600h-498zM803 165q0 -51 -36 -87t-87 -36
h-459v561q0 51 36 87t87 36h457v-561h2z" />
    <glyph glyph-name="5" unicode="&#xe633;" 
d="M753 579q-40 71 -110 112t-152 41q-112 0 -197 -74q-77 -67 -97 -165q-59 -17 -96 -66.5t-37 -110.5q0 -69 45 -120.5t111 -61.5v-3h516q93 0 159 66t66 159q0 88 -60.5 152.5t-147.5 70.5v0zM736 183h-488h-2q-54 1 -92 39.5t-38 93.5q0 48 30.5 84.5t77.5 45.5l18 3
l3 19q13 91 83 151q70 62 163 62q61 0 114.5 -28t88.5 -77q-86 -17 -138 -87q-6 -8 -4.5 -18.5t10 -17t19 -5t17.5 10.5q24 33 60.5 51.5t77.5 18.5q72 0 122.5 -51t50.5 -122.5t-50.5 -122t-122.5 -50.5z" />
    <glyph glyph-name="pifu" unicode="&#xe651;" 
d="M785 792v1q-99 27 -271 27q-35 0 -70.5 -1.5t-65 -4t-56.5 -5t-47 -5.5t-35 -5.5t-23 -4l-8 -1.5v-1l-188 -201l72 -146l116 63v-566h576v566l138 -63l85 146zM695 758q-31 -34 -80 -54t-106 -20q-56 0 -105 19.5t-79 52.5q102 13 185 13q102 0 185 -11zM910 511l-92 43
q-10 5 -21 5q-20 0 -33 -8q-29 -19 -29 -43v-514h-475v514q0 32 -18 44q-12 7 -23 7t-21 -6l-75 -39l-34 67l158 164q8 2 20 4q33 -53 98.5 -84.5t143.5 -31.5q77 0 143 31.5t100 84.5q2 0 9.5 -1.5t11.5 -1.5l179 -165z" />
    <glyph glyph-name="biaoqing" unicode="&#xe6b3;" 
d="M384 486.5q0 42.5 -30 72.5t-72.5 30t-72.5 -30t-30 -72.5t30 -72.5t72.5 -30t72.5 30t30 72.5zM281.5 419q-27.5 0 -47.5 20t-20 47.5t20 47.5t47.5 20t47.5 -20t20 -47.5t-20 -47.5t-47.5 -20zM512 896q-139 0 -257 -68.5t-186.5 -186.5t-68.5 -257t68.5 -257
t186.5 -186.5t257 -68.5t257 68.5t186.5 186.5t68.5 257t-68.5 257t-186.5 186.5t-257 68.5zM512 -76q-94 0 -179 36.5t-146.5 98t-98 146.5t-36.5 179t36.5 179t98 146.5t146.5 98t179 36.5t179 -36.5t146.5 -98t98 -146.5t36.5 -179t-36.5 -179t-98 -146.5t-146.5 -98
t-179 -36.5zM742 307q-10 2 -17.5 -4t-9.5 -14l-3 -7q-10 -75 -66.5 -126t-133.5 -51q-55 0 -104 30q-8 8 -25 15t-25 4q-13 -6 -14.5 -17.5t2.5 -19.5l5 -9q71 -57 161 -57q96 0 167.5 63t85.5 156q0 2 0.5 9t-5.5 16.5t-18 11.5zM614 435h205v51h-205v-51z" />
    <glyph glyph-name="bijiben" unicode="&#xe61e;" horiz-adv-x="1229" 
d="M1213 877l-11 9q-13 11 -30.5 10t-29.5 -14l-16 -19l-10 -13l-66 -77v123h-1050v-1024h1050v753l141 162l11 13l16 18q11 13 9.5 30.5t-14.5 28.5zM998 -77h-947v922h947v-124l-439 -497l-27 -100l103 36l363 413v-650z" />
    <glyph glyph-name="12" unicode="&#xe605;" 
d="M230 384l511 -512l51 51l-460 461l460 461v0l-51 51z" />
    <glyph glyph-name="xiezuo-copy" unicode="&#xe62b;" 
d="M509 242.5q0 -54.5 38.5 -93t93 -38.5t93 38.5t38.5 93t-38.5 93t-93 38.5t-93 -38.5t-38.5 -93zM718 242.5q0 -33.5 -23.5 -57t-57 -23.5t-57 23.5t-23.5 57t23.5 57t57 23.5t57 -23.5t23.5 -57zM1008 364q-361 364 -499 500q-12 11 -23.5 15t-20.5 3t-20 -7.5
t-16.5 -11.5t-14.5 -14.5t-11 -11.5q-45 -45 -182 -182.5t-186 -185.5q-21 -20 -16 -45t42 -60q62 -61 180 -179.5t206 -206.5l88 -88h473v474zM561 -57q-334 335 -447 447q-40 40 8 85q40 39 157 157.5t151 152.5q23 25 40.5 24.5t38.5 -24.5q104 -102 447 -448v0v-394
h-395z" />
    <glyph glyph-name="qi" unicode="&#xe62a;" 
d="M419 219zM634 748q-44 0 -132 -17q-83 -17 -123 -17q-46 0 -85 15q-3 2 -7 2h-1v0h-0.5h-0.5q-4 0 -8 -2h-0.5h-0.5q-2 -1 -3 -2l-2 -2l-0.5 -0.5l-0.5 -0.5q-3 -2 -4 -6l-0.5 -0.5l-0.5 -0.5q-1 -4 -1 -8v-300v-363q0 -9 6 -15.5t15.5 -6.5t16 6.5t6.5 15.5v333
q34 -9 71 -9q45 0 132 18q83 16 123 16q47 0 86 -15q10 -5 20 2t10 18v300q0 15 -14 20q-46 19 -102 19zM706 440q-34 9 -72 9q-44 0 -132 -18q-82 -17 -123 -17q-38 0 -71 11v253q33 -8 71 -8q45 0 132 17q83 17 123 17q39 0 72 -10v-254v0z" />
    <glyph glyph-name="tuihuanhuobaozhang" unicode="&#xe606;" 
d="M517 -128q-46 0 -104.5 24.5t-116 68t-106.5 97.5t-79.5 120.5t-30.5 129.5v434h43q10 0 30.5 1.5t72 11.5t96.5 28q28 12 56 25.5t47.5 24t34.5 19.5t23 14l8 5l26 21l25 -19q68 -48 170 -88q44 -18 93 -28.5t68 -12t28 -1.5h43v-433q0 -64 -29.5 -130.5t-77.5 -121
t-104 -98t-113.5 -68t-102.5 -24.5v0v0v0zM149 662v-350q0 -48 28 -101.5t72 -98.5t94 -82t96.5 -58.5t77.5 -21.5q30 0 75.5 21.5t94 58.5t91 82t70 98.5t27.5 101.5v350q-115 13 -195 45q-90 37 -162 82q-76 -48 -161 -82q-80 -30 -208 -45v0v0v0zM326 400q-9 0 -14.5 7.5
t-5.5 16.5v16q0 13 17 26l115 102q17 16 28 0l14 -14q16 -17 0 -28l-67 -62h285q9 0 14.5 -6t5.5 -15v-21q0 -9 -6 -14.5t-14 -5.5h-372v-2v0v0zM699 336q9 0 15 -7.5t6 -16.5v-16q0 -13 -18 -26l-115 -102q-16 -16 -27 0l-16 14q-16 17 0 28l67 62h-285q-9 0 -14.5 6
t-5.5 15v21q0 9 6 14.5t14 5.5h373v2v0v0zM322 405z" />
    <glyph glyph-name="xin" unicode="&#xe665;" 
d="M511 33l-32 25q-72 56 -105 82t-83 68t-76 68t-53.5 60t-46.5 68q-72 127 -37 239q30 93 124 137q48 22 101 22q63 0 119.5 -29.5t88.5 -78.5q33 49 89.5 78.5t120.5 29.5q53 0 100 -22q95 -44 125 -137q35 -110 -37 -239q-19 -34 -47 -67.5t-54 -60.5t-76 -68.5
t-84 -68.5t-106 -82zM303 768q-48 0 -87 -18q-81 -39 -106 -118q-32 -96 34 -212q42 -74 117.5 -142.5t239.5 -194.5l11 -8l10 8q71 54 104.5 80.5t82 67t74 66.5t52.5 58.5t45 63.5q65 116 34 213q-26 79 -107 117q-39 19 -86 19q-63 0 -116.5 -32t-77.5 -84l-16 -32
l-15 32q-24 52 -77.5 84t-115.5 32z" />
    <glyph glyph-name="zuojiantou-copy" unicode="&#xe607;" 
d="M547 859q15 0 26 -10l438 -439q11 -11 11 -26t-11 -26l-438 -439q-11 -10 -26 -10t-26 10.5t-11 25.5t11 26l413 413l-413 413q-11 11 -11 26t11 25.5t26 10.5z" />
    <glyph glyph-name="ios" unicode="&#xe620;" 
d="M837 220q42 -59 96 -77q-24 -72 -75 -151q-79 -119 -156 -119q-28 0 -85 19q-52 20 -91 20t-86 -21q-49 -19 -81 -19q-92 0 -181 157q-89 154 -89 304q0 138 68 226q69 88 172 88q22 0 50 -5.5t57 -20.5q32 -18 52.5 -24.5t31.5 -6.5q14 0 41.5 6t54.5 22q30 17 51.5 25
t44.5 8q71 0 129 -39q30 -20 62 -60q-47 -41 -68 -72q-40 -57 -40 -125q0 -74 42 -135zM631 698q-36 -33 -66 -44q-10 -3 -26 -5.5t-36 -4.5q1 90 47 155.5t151 90.5q2 -10 4 -14v-12q0 -37 -18 -83q-18 -45 -56 -83z" />
    <glyph glyph-name="lvxing" unicode="&#xe610;" horiz-adv-x="1025" 
d="M729 729l32 -32q14 14 32.5 14t32 -13.5t13.5 -32t-14 -32.5l32 -32q27 27 27 64.5t-27 63.5q-25 27 -62.5 27t-65.5 -27zM637 792l-67 -91l-409 88q-34 9 -47 10q-51 8 -84 -24q-19 -19 -26 -45t-1 -52l1 -3q8 -28 26 -46q21 -21 46 -29q108 -69 292 -170l-96 -128h-90
h-11h-2q-34 3 -53.5 -4t-39.5 -26q-30 -30 -30 -73t30 -73q23 -22 48 -27h2q25 -3 62 -5t48 -3l2 -2q1 -6 2 -33t3 -45q-3 -47 29 -79q22 -22 51 -27v0v0q53 -11 93 29q18 18 23.5 42.5t5.5 61.5l1 96l120 96q110 -195 167 -286q11 -26 27 -42q21 -21 46 -26l2 -1l2 1
q25 -6 51 1t45 26.5t27 45t3 49.5l-120 431l103 81q11 9 20.5 14t15.5 12q62 62 68.5 153t-52.5 153q-61 58 -152.5 51.5t-152.5 -67.5zM70 667q-13 13 -13 33.5t13 33.5q17 17 43 12h2l421 -90l-136 -182zM877 -16q5 -25 -13 -44q-13 -13 -32 -13t-32 13q-11 11 -13 21
l-173 308l149 113zM903 566v0l-516 -401l-3 -170q-3 -12 -11 -21q-14 -13 -32.5 -13t-31.5 13q-9 9 -12 21l-1 109q0 1 0.5 4.5t0.5 4.5v2q0 16 -9 26q-4 4 -11 6h-2q-1 0 -2.5 1t-2.5 1t-3.5 0.5t-4.5 0.5h-9l-120 3v0q-4 1 -20 13q-13 13 -13 32t13 32q11 11 21 13v0h167
l393 527v0q7 9 13 16q45 44 112.5 51t111.5 -34q42 -45 35 -112t-52 -112q-2 -3 -6 -7t-5 -6z" />
    <glyph glyph-name="gouwudai" unicode="&#xe622;" 
d="M925 -85l-39 663q-1 14 -11 23t-24 9h-115v67q0 91 -66 155t-158.5 64t-158.5 -64t-66 -155v-67h-115q-14 0 -24 -9t-11 -23l-39 -670q-1 -15 9.5 -25.5t25.5 -10.5h758q15 0 25 10t10 24q0 5 -1 9zM357 677q0 63 45.5 107t109 44t109 -44t45.5 -107v-67h-309v67z
M170 -60l35 602h82v-34q0 -14 10.5 -24t25 -10t24.5 10t10 24v34h309v-34q0 -14 10 -24t25 -10t25 10t10 24v34h82l35 -602h-683z" />
    <glyph glyph-name="sangangy" unicode="&#xe64a;" 
d="M141 607h742q31 0 52.5 21.5t21.5 52.5t-21.5 52.5t-52.5 21.5h-742q-31 0 -52.5 -21.5t-21.5 -52.5t21.5 -52.5t52.5 -21.5zM883 458h-742q-31 0 -52.5 -21.5t-21.5 -52.5t21.5 -52.5t52.5 -21.5h742q31 0 52.5 21.5t21.5 52.5t-21.5 52.5t-52.5 21.5zM883 161h-742
q-31 0 -52.5 -21.5t-21.5 -52.5t21.5 -52.5t52.5 -21.5h742q31 0 52.5 21.5t21.5 52.5t-21.5 52.5t-52.5 21.5z" />
    <glyph glyph-name="huatong" unicode="&#xe690;" 
d="M233 0l-14 2q-30 4 -41 11q-23 13 -35 34.5t-8 46.5q4 28 24 53q10 13 27 30q5 4 4 10q-2 22 15 43q20 23 129 156q27 33 83.5 101.5t85.5 103.5q0 1 3 4q43 -98 140 -141q-2 -2 -3 -2q-288 -238 -361 -298q-14 -11 -24 -14q-15 -4 -29 0q-4 1 -6 -2q-3 -3 -10.5 -11
t-10.5 -12q-11 -13 -14 -27q-2 -9 4 -18q7 -10 25 -14q46 -9 92 19q22 13 65 51q52 44 74 59q45 29 89 36q26 5 57 1q75 -8 148 -58q66 -46 115 -111q9 -12 4.5 -25.5t-18.5 -17.5q-16 -4 -27 8q-3 4 -13 16l-15 18q-52 57 -111 89q-41 22 -85 28q-57 8 -108 -25
q-25 -16 -65 -51q-46 -40 -71 -56q-41 -28 -82 -35q-1 0 -17 -2h-16zM695 839q19 -3 20 -3q40 -6 77 -29q41 -26 66 -67q26 -40 31 -84q4 -40 -9 -74q-2 -6 -11 -25q-2 -2 -5 -1q-67 12 -121 49q-100 69 -131 187q-1 4 -2.5 11t-2.5 9q-1 4 3 6q31 18 67 20l4 1h14zM822 509
q-25 -11 -26 -12q-58 -20 -118 3q-85 31 -123 116q-18 42 -15 88q3 35 20 65l2 1q61 -198 260 -261z" />
    <glyph glyph-name="zhaofuwushangweixuanzhong" unicode="&#xe611;" 
d="M512 -128q-104 0 -199 40.5t-163.5 109t-109 163.5t-40.5 199t40.5 199t109 163.5t163.5 109t199 40.5t199 -40.5t163.5 -109t109 -163.5t40.5 -199t-40.5 -199t-109 -163.5t-163.5 -109t-199 -40.5zM512 852q-95 0 -181.5 -37t-149.5 -100t-100 -149.5t-37 -181.5
t37 -181.5t100 -149.5t149.5 -100t181.5 -37t181.5 37t149.5 100t100 149.5t37 181.5t-37 181.5t-100 149.5t-149.5 100t-181.5 37zM662 390q0 -58 -40 -100t-97 -45l-178 -153l-23 13l59 224q-14 30 -14 61q0 59 40 100.5t98 45.5l177 153l23 -13l-59 -224q14 -30 14 -62z
M508.5 454q-27.5 0 -47 -19.5t-19.5 -47t19.5 -47t47 -19.5t47 19.5t19.5 47t-19.5 47t-47 19.5z" />
    <glyph glyph-name="baina" unicode="&#xe612;" 
d="M358 512q-9 0 -15.5 -6.5t-6.5 -16t6.5 -16t15.5 -6.5v0h132v-51h-116v0q-9 0 -15.5 -6.5t-6.5 -16t6.5 -16t15.5 -6.5v0h116v-115v0q0 -10 6 -16t16 -6t16 6t6 16v0v112h112v0q10 0 16.5 6.5t6.5 16t-6.5 16t-16.5 6.5v0h-112v48h128v0q10 0 16.5 6.5t6.5 16t-6.5 16
t-16.5 6.5v0h-115l96 160v0q0 1 1.5 4.5t1.5 4.5q0 10 -6 16.5t-16 6.5q-13 0 -19 -13v0l-93 -167q-51 81 -99 167v0q-4 13 -19 13q-10 0 -16.5 -6.5t-6.5 -16.5q0 -6 3 -9v0l96 -160l-112 6v0zM1021 106q0 7 -4 12.5t-8 7.5l-4 2q-77 29 -160 58q48 56 75 128t27 150
q0 118 -58 217.5t-157.5 157t-216 57.5t-216 -57.5t-158 -157t-58.5 -217.5q0 -32 3 -48v0q0 -10 6.5 -16t16.5 -6t17.5 7t7.5 18v0v0q-3 16 -3 48q0 104 51.5 192.5t140 140t192.5 51.5t192.5 -51.5t140 -140t51.5 -192.5q0 -146 -105 -262q-136 47 -151 51h-9
q-40 0 -64 -32q-13 -15 -13.5 -34t7.5 -35.5t17.5 -31t18.5 -22.5l8 -8q-9 0 -23.5 0.5t-55.5 5t-76.5 12.5t-75.5 26t-63 42q-163 170 -218 170h-6q-5 0 -12.5 -1t-22.5 -6t-26 -14t-19 -27.5t-6.5 -43t17 -64t46.5 -87.5q50 -65 105.5 -112.5t95 -70t78.5 -35.5
t52.5 -14.5t20.5 -1.5v0h403h164q17 1 25.5 8.5t9.5 13.5v7q3 192 0 205zM973 -80h-154h-403q-7 0 -19.5 2t-46.5 14t-69.5 32t-85 63t-96.5 100q-19 31 -31 57t-17 41.5t-6 28t0 16.5t3 8q4 8 15.5 12t19.5 4h10q11 -3 23.5 -10t53 -42t102.5 -99q33 -34 86 -57t108 -31.5
t84.5 -11t51.5 -2.5h64q11 0 15.5 10.5t-3.5 18.5l-38 54q-17 14 -30.5 37.5t1.5 36.5v0q10 6 19 6v0q27 -7 112.5 -37.5t158 -57.5l72.5 -27v-166z" />
    <glyph glyph-name="gushou" unicode="&#xe613;" 
d="M659 278v0h-115l96 160v0q0 2 1.5 5t1.5 5q0 10 -6.5 16t-15.5 6q-13 0 -19 -12v0l-90 -170q-51 80 -99 166v0q-4 13 -19 13q-10 0 -16.5 -6.5t-6.5 -15.5q0 -7 3 -10v0l96 -160h-118v0q-10 0 -16 -6.5t-6 -16t6 -16t16 -6.5v0h131v-48h-115v0q-10 0 -16 -6t-6 -16t6 -16
t16 -6v0h115v-112v0q0 -10 6.5 -16.5t16 -6.5t16 6.5t6.5 16.5v0v112h112v0q10 0 16 6t6 16t-6 16t-16 6v0h-112v48h128v0q10 0 16 6.5t6 16.5q5 11 -1.5 18t-17.5 7zM730 838q-17 13 -48 13q-33 0 -102 -17.5t-77.5 -17.5t-77.5 17.5t-102 17.5q-22 0 -48 -13
q-23 -18 -30 -41t1 -39q5 -10 25 -41t37.5 -57l17.5 -26q1 -1 2 -3q9 -13 18 -13t15.5 6t6.5 16v6v0v0q0 1 -20.5 30t-40.5 59.5t-19 35.5q-5 10 0.5 21.5t18.5 13.5q3 4 19 4q32 0 98.5 -18t81.5 -18q12 0 79.5 18t99.5 18q13 0 19 -4v0q14 -2 20.5 -14t1.5 -24
q0 -8 -40 -66t-40 -59v0v0q-4 -2 -5 -3t-1 -3q0 -10 6.5 -16.5t15.5 -6.5q7 0 10 3.5t10 12.5q70 103 80 125q5 20 -1.5 43t-30.5 40zM867 208q-140 309 -176 371q0 3 -6.5 9t-15.5 10q-6 3 -15.5 4.5t-16.5 2.5h-7h-268q-26 0 -39 -7l-19 -19q-10 -19 -83.5 -176
t-92.5 -195q-12 -27 -16.5 -59.5t1.5 -69t25 -63.5q28 -42 56.5 -59t80.5 -31q110 -22 240 -21t199 21q30 10 42 14.5t32 14.5t34 24.5t29 36.5q21 27 28.5 63.5t3.5 69t-16 59.5zM810 38q-7 -9 -12 -15t-12 -11.5t-10.5 -8.5t-14 -7t-15 -5.5t-19.5 -6t-23 -6.5
q-67 -23 -205 -23q-124 0 -205 23q-3 1 -10 3q-43 13 -59.5 22.5t-35.5 34.5q-18 24 -23 55t-0.5 54.5t13.5 41.5q103 230 163 352q5 8 11 12t11 4h4h266q16 3 25 -16q45 -85 163 -352q8 -19 11.5 -42.5t-1.5 -54.5t-22 -54z" />
    <glyph glyph-name="piaoju" unicode="&#xe614;" 
d="M931 778h-838q-25 0 -43 -17.5t-18 -43.5v-122v-425v-122q0 -25 17.5 -43t43.5 -18h838q25 0 43 17.5t18 43.5v122v364v183q0 24 -17.5 42.5t-43.5 18.5zM954 538v-317v-7v-150q0 -12 -8.5 -20.5t-20.5 -8.5h-394h-41h-260v71h-38v-71h-86q-14 0 -23 5.5t-9 17.5v166v330
v160q0 12 8 20t20 8h90v-60h38v57h250h64h381q12 0 20.5 -8.5t8.5 -20.5v-172zM752 426v0h-128l96 169v0q0 2 1.5 5t1.5 5q0 9 -6.5 15.5t-15.5 6.5q-13 0 -19 -13v0l-93 -176q-51 90 -99 176v0q-5 13 -20 13q-9 0 -15.5 -6.5t-6.5 -15.5q0 -7 3 -10v0l96 -169h-131v0
q-10 0 -16 -6.5t-6 -16t6 -16t16 -6.5v0h144v-55h-128v0q-10 0 -16 -6t-6 -16t6 -16t16 -6v0h128v-122v0q0 -10 6.5 -16t16 -6t16 6t6.5 16v0v122h128v0q9 0 15.5 6t6.5 16t-6.5 16t-15.5 6v0h-128v55h144v0q9 0 15.5 6.5t6.5 15.5q3 10 -3 16.5t-16 6.5zM192 614h38v-64
h-38v64zM192 486h38v-64h-38v64zM192 358h38v-64h-38v64zM192 230h38v-64h-38v64z" />
    <glyph glyph-name="xinlangweibo" unicode="&#xe643;" 
d="M425 678q-24 2 -53.5 -4.5t-71 -26.5t-83.5 -52.5t-91 -89t-94 -128.5q-2 -4 -5.5 -12t-11 -31.5t-10.5 -47t1.5 -56t18.5 -62t46 -61.5t79 -57q8 -5 22.5 -12t62.5 -22.5t99.5 -23t128.5 -3.5t153 27q6 2 16 5.5t38 17t53.5 28.5t55.5 40t50.5 52t32 64t6.5 76
q-1 4 -3 9.5t-11 20.5t-21 27.5t-34.5 26t-49.5 19.5q-1 0 -3 0.5t-6.5 3t-6.5 6t-2 10t5 14.5q2 4 4.5 10t5 23.5t0.5 32.5t-15 32t-36 27q-9 2 -24 4t-59 -4.5t-84 -27.5l-4 -2t-7.5 -3t-10.5 -2.5t-9.5 1t-6.5 6t-1 15t7 25.5l0.5 6t0 14.5t-2 19t-6.5 21.5t-12 20.5
t-20.5 16t-30.5 7.5v0zM701 263q0 -52 -40 -102.5t-110.5 -83.5t-149.5 -33q-141 0 -221 54t-79 136q0 52 44.5 99.5t119 77t155.5 29.5q124 0 202.5 -49t78.5 -128zM534 227q-4 -58 -48 -97.5t-108 -41.5q-80 -3 -124 32.5t-36 104.5q7 58 52.5 99.5t107.5 41.5
q69 0 114.5 -36.5t41.5 -102.5v0zM432 247q0 9 -6 14.5t-14 5.5t-14 -6t-6 -14t6 -14t14 -6q8 -1 14 5t6 15v0zM378 199q0 20 -16.5 34t-37.5 11q-22 -3 -38.5 -18t-16.5 -34q0 -21 15 -34.5t37 -13.5t39.5 17t17.5 38zM695 709q6 3 14 4q9 2 16 3v0q2 0 6 0.5t7 0.5h25
q3 0 7.5 -0.5t6.5 -0.5h-1q2 0 5.5 -0.5t4.5 -1.5q16 -3 31 -9q1 0 3.5 -1t4.5 -2h1q12 -6 19 -10q3 -2 8.5 -5.5t7.5 -4.5q1 -1 3.5 -3t4.5 -3l-1 1l3 -3q15 -12 31 -30l4 -4v0q-1 0 -3 3v0q1 -1 2.5 -3.5t2.5 -3.5q6 -11 9 -14q3 -5 7 -15v0q2 -6 4 -10q3 -10 7 -30
q0 -1 0.5 -3.5t0.5 -3.5q0 3 -1 7q1 -3 1 -5q1 -5 1 -16q0 -17 -1 -25q0 -2 -0.5 -6t-0.5 -6v0l1 7v-1q-1 -8 -2 -9q-2 -12 -8 -31q-1 -3 -3 -8l-2 -4q1 2 4 9q-7 -15 -3.5 -31.5t18.5 -25.5q14 -8 32 -4t25 19q40 88 13 182q-22 78 -91 129.5t-152 58.5q-53 3 -91 -10
q-17 -6 -25.5 -20t-4.5 -30q3 -17 18 -27t31 -4v0zM716 594q1 1 3.5 1.5t4.5 0.5h3q2 0 6.5 1t6.5 1q30 0 47 -17q4 -4 7 -6l3 -4q1 -1 4 -7q2 -4 2 -5v0v-1v0q2 -5 4 -15v-2v-9v-12q0 -4 -1 -5v0q0 -1 -0.5 -4t-1.5 -5q-3 -11 3 -21t16 -12q12 -3 21.5 2.5t12.5 16.5
q11 33 2 70t-36 60q-24 21 -58.5 28.5t-66.5 -1.5q-14 -5 -16 -20.5t8 -27t26 -7.5v0z" />
    <glyph glyph-name="cha" unicode="&#xe630;" horiz-adv-x="1026" 
d="M513 -128q-105 0 -199.5 40.5t-163.5 109.5t-109.5 163.5t-40.5 198.5t40.5 199t109.5 163.5t163.5 109t199 40.5t199 -40.5t163.5 -109t109.5 -163.5t40.5 -199t-40.5 -198.5t-109.5 -163.5t-163.5 -109.5t-198.5 -40.5v0zM513 823q-90 0 -171 -35t-140 -93.5
t-93.5 -140t-34.5 -170.5t34.5 -170t93.5 -140t140 -93.5t170.5 -34.5t170.5 34.5t140 93.5t94 140t35 170t-35 170.5t-94 140t-140 93.5t-170 35v0zM564 383l158 156q11 11 11 26t-10.5 25.5t-25.5 11t-26 -10.5l-159 -157l-156 157q-10 10 -25.5 10.5t-26 -10.5t-10.5 -26
t10 -26l156 -156l-157 -155q-11 -11 -11 -26t11 -26t26 -11t26 11l157 155l159 -159q10 -11 25.5 -11t26 11t10.5 26t-10 26l-159 159v0z" />
    <glyph glyph-name="weixin" unicode="&#xe6bd;" 
d="M914 152q-14 -23 20 -134q-4 2 -11 4.5t-28 11t-35 12.5t-33 8.5t-21 -0.5q-68 -35 -148 -35q-88 0 -159.5 41t-106.5 108q-52 7 -98 26q-19 9 -73.5 0.5t-101.5 -20.5t-45 -12q7 16 16 40.5t22.5 74t7.5 68.5q-11 37 -11 113q0 79 44 146.5t120 106.5t165 39
q119 0 209.5 -67t112.5 -169q85 -28 137.5 -93t52.5 -146q0 -66 -36 -123zM438 714q-121 0 -206.5 -75t-85.5 -181q0 -26 4 -62.5t10 -54.5q10 -29 -60 -153q3 1 8.5 3.5l22 10t30.5 13.5t34 14t33 11.5t27.5 7t17.5 -1.5q46 -27 102 -38q-10 34 -10 67q0 60 30.5 113
t83.5 89q-4 9 -4 17q0 15 10.5 26t25.5 11q22 0 33 -21q54 21 114 21q30 0 62 -6q-26 82 -104 135.5t-178 53.5zM658 499q-60 0 -117 -25q-11 -16 -30 -16h-1h-1q-52 -31 -82 -79t-30 -104q0 -93 76.5 -158.5t184.5 -65.5q93 0 165 51q7 3 22 0.5t30 -6.5l15 -5q-1 2 -2 5.5
t-5 13.5t-6 16.5t-3.5 15t0.5 9.5q44 56 44 124q0 92 -76.5 158t-183.5 66zM767 238q-15 0 -25.5 11t-10.5 26t10.5 25.5t25.5 10.5t26 -10.5t11 -25.5t-11 -26t-26 -11zM548 238q-15 0 -26 11t-11 26t11 25.5t26 10.5t25.5 -10.5t10.5 -25.5t-10.5 -26t-25.5 -11z
M328.5 458q-15.5 0 -26 10.5t-10.5 25.5t10.5 26t26 11t26 -11t10.5 -26t-10.5 -25.5t-26 -10.5z" />
    <glyph glyph-name="xinshixin" unicode="&#xe624;" 
d="M499 -54h-1q-56 44 -123 106v0q-140 129 -226 245v0q-77 105 -102 191v0q-12 39 -12 80v0q0 109 77 186t186 77v0q82 0 145 -47v0q42 -31 68 -77v0q27 46 69 77v0q63 47 144 47v0q110 0 187 -77t77 -186v0q0 -27 -5 -53v0h1l-5 -15q-1 -6 -3 -11v0q-26 -87 -103 -192v0
q-60 -82 -151 -174v0q-46 -46 -97 -91.5t-72.5 -63t-28.5 -22.5v0l-13 -10l-12 10v0zM141 725zM500 -53v0q-56 44 -123 106v0q-141 129 -226 246v0q-77 105 -103 191v0q-12 38 -12 79v0q0 109 77 186t187 77v0q81 0 144 -46v0q42 -31 69 -78v0q26 47 68 78v0q63 46 145 46v0
q109 0 186 -77t77 -186v0q0 -27 -5 -53v0h1l-4 -15q-2 -5 -4 -11v0q-25 -86 -102 -191v0q-61 -83 -152 -174v0q-77 -78 -198 -178v0l-12 -10l-13 10v0z" />
    <glyph glyph-name="jiage" unicode="&#xe608;" 
d="M877 745q-88 0 -170.5 29.5t-149.5 84.5l-45 37l-45 -37q-67 -55 -150 -84.5t-170 -29.5h-71v-71v-393v-14l6 -14q55 -133 163.5 -232.5t245.5 -141.5l21 -7l21 6q140 43 247 141.5t163 234.5l5 13v13v4v390v71h-71zM877 284v-3q-49 -120 -145 -208.5t-220 -126.5
q-122 38 -219 127.5t-146 207.5v393q206 0 365 130q159 -130 365 -130v-390zM549 422h-55v-129q4 -68 -44 -98v-39q105 41 99 148v118v0zM435 442v-35q103 35 155 109q50 -72 155 -109v35q-96 55 -127 140h-58q-31 -85 -125 -140zM395 580q-19 -105 -87 -145v-33q29 9 52 22
v-266h57v323q20 37 35 99h-57zM623 422h55v-258h-55v258z" />
    <glyph glyph-name="daohang-copy" unicode="&#xe623;" 
d="M80 154h898v-70h-898v70zM80 420h898v-69h-898v69zM80 686h898v-69h-898v69z" />
    <glyph glyph-name="sangediandian" unicode="&#xe644;" 
d="M841 501q-47 0 -80 -32.5t-33 -78.5t33 -78.5t80 -32.5t80.5 32.5t33.5 78.5t-33.5 78.5t-80.5 32.5zM501 501q-47 0 -80.5 -32.5t-33.5 -78.5t33.5 -78.5t80.5 -32.5t80 32.5t33 78.5t-33 78.5t-80 32.5zM183 501q-47 0 -80.5 -32.5t-33.5 -78.5t33.5 -78.5t80.5 -32.5
t80 32.5t33 78.5t-33 78.5t-80 32.5z" />
    <glyph glyph-name="choujiang1" unicode="&#xe609;" 
d="M513 715q-132 0 -225 -93t-93 -224.5t93 -225t225 -93.5t225 93.5t93 225t-93 224.5t-225 93v0zM741 563l-141 -96l39 118l-102 -91l54 174q93 -27 150 -105v0zM536 493q-10 2 -20 3q10 0 20 -3v0v0zM516 679h-1.5h-1.5h-5h4.5h2h1.5v0zM527 678v0v0v0zM521 679h-1h-1h2
v0zM231 397q0 116 81 198t196 84q-36 -1 -71 -11l54 -175q-31 -7 -52 -31l-151 104q-50 -66 -56 -149l184 1q-2 -10 -2 -21q0 -31 18 -57l-148 -106q48 -68 126 -99l62 172q18 -8 38 -8h3q23 0 44 10v0q24 12 38 34h1q16 25 16 54q0 11 -2 21h-1q-3 18 -14 33l1 1
q10 -16 14 -34l184 -1v-20q0 -84 -46 -155l-152 101q-15 -22 -39 -34l68 -170q-53 -23 -112 -23q-117 0 -199.5 82.5t-82.5 198.5v0zM512 887q102 0 195 -39q91 -38 160.5 -107.5t107.5 -159.5q39 -94 39 -196t-39 -195q-38 -90 -107.5 -159.5t-160.5 -108.5
q-93 -39 -195 -39t-195 39q-91 39 -160.5 108.5t-107.5 159.5q-39 93 -39 195t39 196q38 90 107.5 159.5t160.5 107.5q93 39 195 39v0zM512 -77q94 0 179.5 36.5t147.5 98.5t98.5 147.5t36.5 179.5t-36.5 179.5t-98.5 147.5t-147.5 98.5t-179.5 36.5t-179.5 -36.5
t-147.5 -98.5t-98.5 -147.5t-36.5 -179.5t36.5 -179.5t98.5 -147.5t147.5 -98.5t179.5 -36.5z" />
    <glyph glyph-name="renren" unicode="&#xe61b;" horiz-adv-x="1025" 
d="M541 355q62 37 99 103t37 144q0 117 -77 199.5t-185.5 82.5t-185.5 -82.5t-77 -199.5q0 -78 37 -144t98 -103q-115 -38 -191 -145q-45 -63 -70.5 -141.5t-25.5 -154.5q0 -12 9 -21t21.5 -9t21.5 9t9 21q0 59 21 129.5t64 131.5q100 139 268 139q70 0 130 -26t100.5 -68
t69 -95t42 -107t13.5 -104q0 -12 9 -21t21.5 -9t21.5 9t9 21q0 61 -18 126t-52 127.5t-91.5 113t-127.5 74.5zM213 602q0 91 59 156t142.5 65t142.5 -65t59 -156t-59 -155.5t-142.5 -64.5t-142.5 64.5t-59 155.5zM966 229q-54 93 -171 146q123 93 111 223q-4 47 -23.5 86
t-41 61t-48.5 39t-39 21.5t-19 6.5q-13 4 -24 -2.5t-14.5 -18.5t2.5 -23t18 -15q6 -2 14.5 -5.5t29 -16t36.5 -29t30.5 -46t17.5 -63.5q3 -36 -9.5 -69.5t-29.5 -54.5t-41 -39.5t-34.5 -24.5t-17.5 -9q-20 -9 -18 -31t24 -27q5 -1 15 -4t35.5 -14.5t49 -26t50 -40
t44.5 -54.5q22 -40 34.5 -89t14 -68.5t1.5 -30.5q-1 -12 8 -21.5t22 -9.5v0v0q13 0 22 8.5t9 21.5q0 14 -1 36.5t-15.5 79.5t-41.5 103z" />
    <glyph glyph-name="xinfeng" unicode="&#xe634;" horiz-adv-x="1035" 
d="M1019 145q0 -67 -47.5 -114t-114.5 -47h-692q-67 0 -114 47t-47 114v484q0 67 47 114.5t114 47.5h692q67 0 114.5 -47.5t47.5 -114.5v-484zM973 630q0 47 -34 81t-82 34h-692q-48 0 -81.5 -34t-33.5 -81v-485q0 -48 33.5 -81.5t81.5 -33.5h692q48 0 82 33.5t34 81.5v485z
M522.5 342q-33.5 0 -59.5 22l-394 331q-7 7 -8 16.5t5.5 16.5t16 8t16.5 -5l393 -332q14 -11 30.5 -11t29.5 11l394 332q7 6 16.5 5t16 -8t5.5 -16.5t-8 -16.5l-394 -331q-26 -22 -59.5 -22z" />
    <glyph glyph-name="jian" unicode="&#xe650;" 
d="M399 348h-188q-33 0 -57 -24t-24 -57v-188q0 -33 24 -56.5t57 -23.5h188q33 0 56.5 23.5t23.5 56.5v188q0 33 -23.5 57t-56.5 24zM415 79q0 -7 -4.5 -11.5t-11.5 -4.5h-188q-7 0 -12 4.5t-5 11.5v188q0 7 5 12t12 5h188q7 0 11.5 -5t4.5 -12v-188zM399 769h-188
q-33 0 -57 -23.5t-24 -56.5v-188q0 -33 24 -57t57 -24h188q33 0 56.5 24t23.5 57v188q0 33 -23.5 56.5t-56.5 23.5zM415 501q0 -7 -4.5 -12t-11.5 -5h-188q-7 0 -12 5t-5 12v188q0 7 5 11.5t12 4.5h188q7 0 11.5 -4.5t4.5 -11.5v-188zM813 348h-188q-33 0 -56.5 -24
t-23.5 -57v-188q0 -33 23.5 -56.5t56.5 -23.5h188q33 0 57 23.5t24 56.5v188q0 33 -24 57t-57 24zM830 79q0 -7 -5 -11.5t-12 -4.5h-188q-7 0 -11.5 4.5t-4.5 11.5v188q0 7 4.5 12t11.5 5h188q7 0 12 -5t5 -12v-188zM813 769h-188q-33 0 -56.5 -23.5t-23.5 -56.5v-188
q0 -33 23.5 -57t56.5 -24h188q33 0 57 24t24 57v188q0 33 -24 56.5t-57 23.5zM830 501q0 -7 -5 -12t-12 -5h-188q-7 0 -11.5 5t-4.5 12v188q0 7 4.5 11.5t11.5 4.5h188q7 0 12 -4.5t5 -11.5v-188z" />
    <glyph glyph-name="wenjian" unicode="&#xe6f1;" 
d="M893.5 644.5q-32.5 32.5 -77.5 32.5h-353l-120 95l-11 9h-14h-142q-39 0 -66.5 -28t-27.5 -68v-255v-7v-341q0 -46 32.5 -78t77.5 -32h624q45 0 77.5 32t32.5 78v485q0 45 -32.5 77.5zM176 740h142l131 -104h367q28 0 48.5 -20.5t20.5 -48.5v-120h-762v238q0 23 15.5 39
t37.5 16zM816 13h-624q-28 0 -48.5 20t-20.5 49v324h762v-324q0 -29 -20.5 -49t-48.5 -20z" />
    <glyph glyph-name="chexian" unicode="&#xe615;" horiz-adv-x="1405" 
d="M1400 459q-7 44 -61 73q-1 1 -17 9q41 29 44 31q12 11 11 25.5t-15 21.5q-15 9 -35 -4q-8 -4 -78 -46q-8 15 -8 16q-97 211 -101 219q-43 92 -144 92h-293.5h-293.5q-106 0 -151 -96q-14 -31 -98 -211q-1 -1 -8 -16l-11 4q-52 31 -71 43q-24 15 -40 -5q-8 -9 -7 -20.5
t11 -19.5q4 -4 31 -23l10 -6q-6 -4 -17 -12.5t-18.5 -15.5t-13.5 -14q-18 -22 -24 -51q-3 -15 -2 -104.5t4 -108.5q12 -77 78 -125q4 -3 12.5 -7.5t14 -9t8.5 -9.5q3 -6 3 -13.5t-1 -18t-1 -14.5q0 -61 42.5 -103.5t103 -43t102.5 42.5t43 103v37h583v-38q0 -52 33.5 -92.5
t83.5 -49.5q53 -9 99.5 16.5t65.5 75.5q3 8 5 17t2.5 20t1 17t0 19.5t-0.5 18.5q0 12 11 17q70 35 95 107q1 2 8 26q6 26 6.5 119t-2.5 107v0zM316 784q25 54 93 54h261h262q60 0 76 -1q53 -4 76 -51q15 -32 107 -232l1 -5q-216 -67 -498 -66q-276 1 -488 68q99 211 110 233
v0zM302 -36q-41 -21 -81.5 2t-44.5 69v45h173q13 -85 -47 -116v0zM1177 -35q-41 -22 -82 0.5t-45 68.5v46h173q5 -42 -4.5 -70t-41.5 -45v0zM1340 262q-2 -53 -40 -88t-92 -35h-508q-447 0 -502 -1q-54 0 -96.5 37t-42.5 100v154q0 43 38 69q31 21 105 -5q119 -43 274 -55
q145 -12 241 -12q259 0 465 60q19 5 57 19q14 4 38 -1.5t36 -14.5q28 -22 28 -59q1 -127 -1 -168v0zM922 314h-221h-222q-12 0 -19 -2q-22 -6 -22 -28q1 -22 21 -27q8 -2 20 -2h442q41 0 41 29q1 30 -40 30v0zM230 397q-36 0 -61 -25.5t-26 -60.5q0 -37 25.5 -62.5
t61.5 -26.5q36 0 62 25.5t26 62t-25.5 62t-62.5 25.5v0zM1163 397q-37 0 -62.5 -26t-25.5 -62q1 -36 26.5 -61.5t61.5 -25.5t61.5 26t25.5 62t-25.5 61.5t-61.5 25.5v0zM522 803q-19 -12 -20 -13q-19 -18 -97 -92q-61 -57 -73 -69q-10 -10 -10.5 -21.5t8 -20.5t20 -9t21.5 9
q3 2 11 10q73 69 97 90q34 33 69 66q14 14 7 33q-8 17 -33 17v0zM367 695q33 27 68 60q14 13 5 32q-8 16 -30 16q-12 -5 -13 -5q-43 -37 -67 -60q-8 -8 -8.5 -19t7.5 -19q7 -9 18 -10.5t20 5.5v0z" />
    <glyph glyph-name="flag" unicode="&#xe697;" 
d="M728 757q-97 0 -167 39q-69 38 -166 38q-76 0 -167 -50v-423q91 50 167 50q96 0 166 -39q70 -38 167 -38q72 0 167 52v423q-95 -52 -167 -52v0zM166 834q-15 0 -26 -11t-11 -27v-824q0 -16 11 -27t26.5 -11t26.5 11t11 27v824q-1 16 -11.5 27t-26.5 11v0z" />
    <glyph glyph-name="xiangyoujiantouyuan" unicode="&#xe625;" 
d="M512 -64q-185 0 -316.5 131.5t-131.5 316.5t131.5 316.5t316.5 131.5t316.5 -131.5t131.5 -316.5t-131.5 -316.5t-316.5 -131.5zM512 768q-159 0 -271.5 -112.5t-112.5 -271.5t112.5 -271.5t271.5 -112.5t271.5 112.5t112.5 271.5t-112.5 271.5t-271.5 112.5zM733 395v0
q-3 6 -7 10v0v0l-159 160q-9 9 -22.5 9t-23 -9t-9.5 -22.5t10 -22.5l103 -104h-305q-13 0 -22.5 -9.5t-9.5 -22.5t9.5 -22.5t22.5 -9.5h307l-106 -105q-10 -9 -10 -22.5t9.5 -23t22.5 -9.5t23 10l160 158q15 15 7 35z" />
    <glyph glyph-name="tu" unicode="&#xe63b;" horiz-adv-x="1040" 
d="M0 770v-823h1024v823h-1024zM975 718v-683l-319 364l-123 -107l-192 273l-292 -338v491h926zM49 151l288 333l188 -266l127 111l289 -331h-892v153zM804.5 410q50.5 0 86 37.5t35.5 90.5t-35.5 91t-86 38t-86 -38t-35.5 -91t35.5 -90.5t86 -37.5zM804.5 624
q32.5 0 55.5 -25t23 -60.5t-23 -60.5t-55.5 -25t-55.5 25t-23 60.5t23 60.5t55.5 25z" />
    <glyph glyph-name="2guanyuwomeneps" unicode="&#xe646;" 
d="M898 -50q-1 -2 -3.5 -3.5t-6 -3t-7.5 -2.5l-10 -2.5t-10.5 -2t-12 -2t-12.5 -2t-14 -1.5t-13 -2q-64 -9 -297 -10q-232 1 -298 8q-43 5 -71.5 14t-27.5 17q1 16 7 38q0 3 1.5 13t3 18.5t3.5 10.5q12 18 24.5 30.5t32.5 23.5t35.5 17t50.5 19q64 23 91 40q24 16 31.5 36.5
t9.5 56.5q2 31 -13 65q-3 6 -15 16q-51 43 -76 126q-2 6 -14.5 12t-15.5 14q0 1 -2.5 6t-5.5 13.5t-5 17.5q-3 27 10 48q19 10 20 26q2 34 9.5 66t24.5 65.5t41 58.5t62 41t85.5 16t86 -16t62.5 -41t41 -59t25 -66.5t10 -66.5q1 -8 12 -18.5t13 -14.5q0 -1 1 -9t2 -17t0 -21
q-2 -14 -13.5 -28.5t-17.5 -18.5q-6 -2 -8.5 -5.5t-4.5 -12.5t-3 -11q-20 -58 -82 -118q-2 -2 -11 -22q-4 -10 -5 -48q-1 -74 59 -102q30 -14 89 -36q2 -1 6 -2q78 -28 98 -57q18 -24 25 -36q7 -27 10 -43v-5q-1 -10 -1.5 -14t-0.5 -5.5t-2 -4t-3 -4.5zM950 -15q-2 10 -3 19
q-2 11 -6 27h-0.5t-0.5 1q-6 28 -29 58q-8 10 -16.5 18t-22.5 15l-23 11.5t-32 13.5t-34 14q-84 35 -95 42q-37 24 -21 93q66 64 89 135q19 13 33 36.5t18 53.5q9 65 -29 100q-15 132 -82.5 203t-184.5 71q-235 0 -264 -274q-40 -37 -31 -102q8 -60 50 -86q9 -24 17 -41.5
t19 -32.5t16 -21.5t20.5 -22.5t19.5 -21q7 -34 4.5 -51.5t-22.5 -36.5q-15 -13 -87 -40q-3 -2 -23 -9t-25.5 -9.5t-23.5 -10t-24.5 -12t-20.5 -13t-20 -16.5t-14 -19t-12 -23.5t-6 -26.5q-1 -9 -5 -24q-17 -66 8 -85q22 -17 52.5 -25t119 -14t253.5 -6v-2v2q165 0 257.5 7
t125.5 17t47 28q9 12 10 37q0 12 -2 22v0z" />
    <glyph glyph-name="lingdang" unicode="&#xe631;" 
d="M599 55q-4 -31 -25.5 -51t-50.5 -20t-50.5 20t-25.5 51h152zM497 803h27q12 0 20 -7.5t8 -19t-8 -19.5t-20 -8h-27q-12 0 -20 8t-8 19.5t8 19t20 7.5zM878 93h-1h-733q-8 0 -11 7t2 13l123 149v260q0 105 74 179t178.5 74t178.5 -74t74 -179v-261l122 -145q5 -4 5 -11
q0 -5 -3.5 -8.5t-8.5 -3.5zM171 118h680l-110 131q-3 4 -3 8v265q0 95 -66.5 161.5t-161 66.5t-161 -66.5t-66.5 -161.5v-265q0 -4 -3 -8z" />
    <glyph glyph-name="check1" unicode="&#xe626;" 
d="M512 896q-104 0 -198.5 -40.5t-163.5 -109.5t-109.5 -163.5t-40.5 -198.5q0 -211 150.5 -361.5t361.5 -150.5q104 0 198.5 40.5t163.5 109.5t109.5 163.5t40.5 198.5q0 211 -150.5 361.5t-361.5 150.5zM512 -86q-95 0 -182 37.5t-150 100.5t-100.5 150t-37.5 182
t37.5 182t100.5 150t150 100.5t182 37.5t182 -37.5t150 -100.5t100.5 -150t37.5 -182t-37.5 -182t-100.5 -150t-150 -100.5t-182 -37.5zM378 684q-8 6 -16.5 5t-13.5 -7q-6 -8 -5 -17t9 -13l338 -268l-338 -240q-8 -6 -9 -15t5 -15q7 -10 16 -10q8 0 12 4l362 258
q10 7 10 18q0 8 -8 16z" />
    <glyph glyph-name="wujiaoxing" unicode="&#xe61c;" 
d="M434 -1l-108 -50q-21 -14 -46 -14q-34 0 -58 24t-24 58q0 14 1 24l15 128v1q5 21 3 44q-5 50 -38 82l-1 1l-69 75q-47 28 -47 86q0 26 13.5 48t36.5 35l2 1l182 38q38 19 59 51l1 2l80 137q7 26 28 42.5t48 16.5t48 -16.5t27 -42.5l79 -136l1 -3q6 -19 21 -33t35 -17h1
l156 -30v0q10 -2 33 -7l5 -1l4 -4q5 -3 11 -10t15 -28t9 -44q0 -44 -34 -73l-81 -90v0q-31 -32 -36 -80q-2 -18 1 -36v-1l14 -136q4 -12 4 -24q0 -34 -24 -58t-58 -24q-18 0 -35 7v0l-122 58l-2 1q-17 13 -51 18q-15 3 -29 3q-43 0 -64 -19zM719 -17q11 -7 24 -7q17 0 29 12
t12 29q0 6 -2 13l-1 3l-14 138q-4 24 -2 47q6 62 47 104l83 92l1 1q20 17 20 42q0 27 -18 48l-11 3l-12 2l-4 1h-1v0v0v0l-153 30q-31 5 -55 25.5t-33 51.5l-81 137v3q-3 13 -13 21.5t-23.5 8.5t-23.5 -8.5t-12 -21.5l-1 -3l-81 -138q-14 -42 -83 -75l-2 -1l-180 -38
q-26 -15 -26 -45q0 -16 7 -29t12 -16.5t8 -5.5l4 -2l2 -3l72 -77q43 -42 50 -107q3 -29 -4 -56l-14 -126v0q-1 -7 -1 -19q0 -17 12 -29t29 -12q13 0 24 8l1 1l109 50q1 0 7.5 4t10 6t12.5 6t17 6t19.5 4t23.5 2q18 0 36 -3q42 -7 67 -25l96 -45z" />
    <glyph glyph-name="youjian" unicode="&#xe647;" 
d="M868 -19h-712q-65 0 -110.5 45.5t-45.5 109.5v496q0 65 45.5 110.5t110.5 45.5h712q65 0 110.5 -45.5t45.5 -110.5v-496q0 -64 -45.5 -109.5t-110.5 -45.5v0zM156 744q-46 0 -78.5 -33t-32.5 -79v-496q0 -46 32.5 -78.5t78.5 -32.5h712q46 0 78.5 32.5t32.5 78.5v496
q0 46 -32.5 79t-78.5 33h-712v0zM501 339q-7 0 -13 4l-395 270q-7 5 -9 14t3.5 16.5t14.5 9.5t16 -4l383 -261l405 262q8 5 17 3t14 -10t3 -17t-10 -14l-417 -270q-6 -3 -12 -3v0zM501 339z" />
    <glyph glyph-name="gouwuche1" unicode="&#xe619;" horiz-adv-x="1143" 
d="M857 38q-22 0 -37 -15.5t-15 -37t15 -36.5t36.5 -15t37 15t15.5 36.5t-15.5 37t-36.5 15.5v0zM311 38q-21 0 -36 -15.5t-15 -37t15 -36.5t36.5 -15t36.5 15t15 36.5t-15 37t-37 15.5v0zM233 528l24 -282h735l43 160l-802 122v0zM228 581l821 -125l14 54l-839 123l4 -52v0
zM1076 560l15 57q3 10 12 15.5t20 2.5q10 -3 15.5 -12t2.5 -20l-104 -390q-5 -19 -25 -19h-778q-22 0 -37 -15.5t-15 -36.5q0 -17 9.5 -30.5t24.5 -18.5q9 -3 18 -3h778q11 0 18.5 -7.5t7.5 -18.5t-7.5 -18.5t-18.5 -7.5h-67q15 -23 15 -52q0 -43 -30 -73.5t-73 -30.5
t-73.5 30.5t-30.5 73.5q0 29 16 52h-370q16 -23 16 -52q0 -43 -30.5 -73.5t-73 -30.5t-73 30.5t-30.5 73.5q0 31 17 53l-26 5q-31 11 -50 38t-19 60q0 35 21.5 63t54.5 37l-49 557l-139 46q-10 4 -15 13.5t-1.5 19.5t13 15t19.5 2l156 -52q16 -6 18 -23l11 -133l857 -127v0z
" />
    <glyph glyph-name="guim" unicode="&#xe65d;" 
d="M987 109h-44q0 73 -56.5 125t-137.5 52v38q100 4 169 -60.5t69 -154.5v0zM113 109h-43q0 92 69.5 156.5t167.5 64.5v-38q-81 -4 -137.5 -57.5t-56.5 -125.5v0zM841 33h-49q0 101 -75 172t-183.5 71t-183.5 -71t-75 -172h-49q0 57 24 111t68 94q95 86 221 86
q60 0 118 -22.5t103 -63.5q37 -41 59 -95t22 -110zM760 286v38q45 0 76.5 29.5t31.5 73.5q0 41 -32 71.5t-76 30.5v38q64 0 107.5 -41.5t43.5 -99t-43.5 -99t-107.5 -41.5zM302 286q-64 0 -107.5 41.5t-43.5 99.5q0 56 45 98t106 42v-38q-45 0 -76.5 -29t-31.5 -73
q0 -41 32 -72t76 -31v-38zM528 281q-88 0 -152 62.5t-64 148t64 148t152.5 62.5t152 -62.5t63.5 -148.5t-62 -148t-154 -62zM528 653q-68 0 -117.5 -48.5t-49.5 -113.5q0 -68 49 -114.5t118 -46.5q68 0 117.5 48t49.5 113t-49.5 113.5t-117.5 48.5z" />
    <glyph glyph-name="naozhong" unicode="&#xe701;" 
d="M611 55h-39q-10 0 -10 -9q0 -21 -14.5 -36t-35.5 -15t-35.5 15t-14.5 36q0 9 -10 9h-40q-9 0 -9 -9q0 -45 32.5 -77t76.5 -32t76.5 32t32.5 77q0 9 -10 9v0zM920 105q0 6 -3 11q-6 48 -31.5 89t-65.5 69v170q0 96 -55 175t-145 113q-3 42 -34.5 70.5t-73.5 28.5
t-73.5 -28.5t-35.5 -70.5q-89 -34 -144 -113t-55 -175v-170q-40 -28 -65.5 -69t-31.5 -89q-4 -8 -2 -16q-1 -7 -1 -15q0 -9 10 -9h796q10 0 10 9q0 7 -1 15q1 3 1 5v0zM569 686q20 -5 39 -12q69 -29 111 -92.5t42 -137.5v-198q0 -6 5 -9q66 -33 87 -102h-682q21 70 87 102
q5 3 5 9v198q0 85 54 153.5t137 88.5q8 2 8 9v27q0 21 15 35.5t35 14.5t35 -14.5t15 -35.5v-27q0 -7 7 -9v0zM569 686z" />
    <glyph glyph-name="shezhi" unicode="&#xe67a;" 
d="M994 289v200h-155q-9 30 -24 59l110 109l-142 142l-109 -110q-29 15 -60 25v155h-200v-155q-30 -10 -59 -25l-109 110l-142 -142l110 -109q-15 -29 -25 -59h-155v-200h155q10 -31 25 -59l-110 -110l142 -141l109 109q29 -15 59 -24v-155h200v155q31 9 60 24l109 -109
l142 141l-110 110q15 28 24 59h155zM808 298q-9 -27 -22 -53l-12 -21l104 -104l-95 -95l-103 104l-22 -12q-26 -13 -53 -22l-24 -7v-146h-133v146l-24 7q-27 9 -53 22l-22 12l-103 -104l-95 95l104 104l-12 21q-13 26 -22 53l-7 24h-146v134h146l7 23q9 27 22 53l12 22
l-104 103l95 95l103 -104l22 12q26 14 53 22l24 7v147h133v-147l24 -7q27 -8 53 -22l22 -12l103 104l95 -95l-104 -103l12 -22q13 -26 22 -53l7 -23h146v-134h-146zM514.5 569q-74.5 0 -127.5 -53t-53 -127.5t53 -127t127.5 -52.5t127 52.5t52.5 127t-52.5 127.5t-127 53z
M514.5 242q-60.5 0 -103.5 43t-43 103.5t43 104t103.5 43.5t103.5 -43.5t43 -104t-43 -103.5t-103.5 -43z" />
    <glyph glyph-name="kefu" unicode="&#xe61a;" 
d="M887 520h-28q-14 131 -113.5 221.5t-233.5 90.5t-233.5 -90t-113.5 -222h-28q-16 0 -28 -12t-12 -29v-282q0 -17 12 -29t28 -12h94q16 0 28 12t12 29v282q0 17 -12 29t-28 12h-17q14 112 99 187.5t199 75.5t199 -76t99 -187h-17q-16 0 -28 -12t-12 -29v-282q0 -17 12 -29
t28 -12h6q-18 -36 -55 -67q-36 -30 -80.5 -48t-82.5 -18h-18q-16 18 -39 18h-81q-22 0 -37.5 -15.5t-15.5 -36.5v0q0 -22 15.5 -37.5t37.5 -15.5h81q18 0 32 11t18 28h7q46 0 99 20.5t95 56.5q56 47 76 104h36q16 0 28 12t12 29v282q0 17 -12 29t-28 12zM439 422
q0 18 -13 31t-31 13t-30.5 -13t-12.5 -31t12.5 -31t30.5 -13t31 13t13 31zM672 422q0 18 -12.5 31t-30.5 13t-31 -13t-13 -31t13 -31t31 -13t30.5 13t12.5 31zM629 184q8 9 5.5 18.5t-11.5 11.5t-19 -5q-34 -35 -92 -35t-92 35q-9 8 -18.5 5t-12 -12t5.5 -18q44 -44 117 -44
t117 44z" />
    <glyph glyph-name="piaowu" unicode="&#xe616;" 
d="M222 475h40v-68h-40v68zM222 344h40v-68h-40v68zM222 208h40v-69h-40v69zM222 617h40v-68h-40v68zM956 799h-888q-26 0 -47 -18.5t-21 -43.5v-188v-6v-34q42 -4 69.5 -34.5t27.5 -73.5q0 -42 -27 -70t-70 -32v-40v-6v-210q0 -26 19.5 -44.5t48.5 -18.5h888q27 0 47.5 17
t20.5 46v210v6v40q-35 8 -60 39t-25 68.5t25 68.5t60 40v34v0v188q0 27 -18 44.5t-50 17.5zM899 401q0 -89 85 -136v-63h6l-6 -142q0 -14 -9 -24t-25 -10h-688v51h-40v-51h-142q-34 0 -34 22v211q42 17 66.5 53t24.5 83q0 46 -26 82.5t-65 54.5v193q0 14 9 24t25 10h142v-62
h40v62h688q13 0 23.5 -8t10.5 -20v-193q-39 -22 -62 -58.5t-23 -78.5zM808 555h-438q-12 0 -12 -6v-23q0 -7 3 -9t9 -2h438q4 0 7.5 3.5t3.5 7.5v23q-3 0 -5.5 3t-5.5 3zM808 287h-438q-4 0 -8 -3.5t-4 -7.5v-23q0 -4 4 -7.5t8 -3.5h438q4 0 7.5 3.5t3.5 7.5v23
q-4 8 -5.5 9.5t-5.5 1.5z" />
    <glyph glyph-name="zanting" unicode="&#xe63a;" 
d="M512 834q-91 0 -174.5 -36t-143.5 -96t-96 -143.5t-36 -174.5t36 -174.5t96 -143.5t143.5 -96t174.5 -36t174.5 36t143.5 96t96 143.5t36 174.5t-36 174.5t-96 143.5t-143.5 96t-174.5 36zM786.5 109.5q-53.5 -53.5 -123.5 -83.5q-72 -30 -151 -30t-151 30
q-70 30 -123.5 83.5t-83.5 123.5q-30 72 -30 151t30 151q30 70 83.5 123.5t123.5 83.5q72 30 151 30t151 -30q70 -30 123.5 -83.5t83.5 -123.5q30 -72 30 -151t-30 -151q-30 -70 -83.5 -123.5zM699 610h-115q-6 0 -6 -6v-440q0 -6 6 -6h115q6 0 6 6v440q0 6 -6 6zM440 610
h-115q-6 0 -6 -6v-440q0 -6 6 -6h115q6 0 6 6v440q0 6 -6 6z" />
    <glyph glyph-name="yqfyuanjiantouxiangyou" unicode="&#xe6e8;" 
d="M512 -125q-103 0 -196 40q-91 38 -161 108t-108 161q-39 93 -39 196t39 196q38 91 108 160.5t161 108.5q93 39 196 39t196 -39q91 -39 161 -108.5t108 -160.5q39 -93 39 -196t-39 -196q-38 -91 -108 -161t-161 -108q-93 -40 -196 -40zM512 843q-94 0 -180 -36.5
t-148 -98.5t-99 -148t-37 -180t37 -180t99 -148t148 -99t180 -37t180 37t148 99t99 148t37 180t-37 180t-99 148t-148 98.5t-180 36.5zM410.5 92q-8.5 0 -14.5 6t-6 14.5t6 14.5l244 244l-244 245q-6 6 -6 14.5t6 14.5t14.5 6t13.5 -6l260 -259q6 -6 6 -14.5t-6 -14.5
l-260 -259q-5 -6 -13.5 -6z" />
    <glyph glyph-name="xiayishou1" unicode="&#xe64e;" 
d="M563 387l-214 162q-2 1 -4 0t-2 -3v-324q0 -2 2 -3t4 0l214 162q2 1 2 3t-2 3zM677 549h-74q-4 0 -4 -4v-322q0 -4 4 -4h74q4 0 4 4v322q0 4 -4 4zM512 802q85 0 163 -33q74 -32 132 -90t90 -132q33 -78 33 -163t-33 -163q-32 -74 -90 -132t-132 -90q-78 -33 -163 -33
t-163 33q-74 32 -132 90t-90 132q-33 78 -33 163t33 163q32 74 90 132t132 90q78 33 163 33zM512 832q-91 0 -174 -35.5t-143 -95.5t-95.5 -143t-35.5 -174t35.5 -174t95.5 -143t143 -95.5t174 -35.5t174 35.5t143 95.5t95.5 143t35.5 174t-35.5 174t-95.5 143t-143 95.5
t-174 35.5v0z" />
    <glyph glyph-name="fuwutiexinfuwu" unicode="&#xe604;" 
d="M907 575q-3 7 -10 9.5t-14 -1t-9.5 -10.5t0.5 -14q40 -83 40 -175q0 -109 -54 -201.5t-146.5 -146.5t-201.5 -54t-201.5 54t-146.5 146.5t-54 201.5t54 201.5t146.5 146.5t201.5 54q92 0 175 -40q7 -3 14 -0.5t10.5 9.5t1 14t-9.5 10q-90 44 -191 44q-89 0 -170.5 -35
t-140 -93.5t-93.5 -140t-35 -170.5t35 -170.5t93.5 -140t140 -93.5t170.5 -35t170.5 35t140 93.5t93.5 140t35 170.5q0 101 -44 191zM636 630q-11 36 -45.5 59.5t-78.5 23.5t-78.5 -23.5t-45.5 -59.5q59 28 124 28t124 -28zM512 649q-97 0 -173 -59.5t-101 -151.5q-5 1 -9 1
q-23 0 -39 -16t-16 -39v-37q0 -22 16 -38t39 -16q13 0 26 7q-8 33 -8 66q0 9 1 22q1 6 1 9q0 2 1 10q3 13 5 24q22 87 93.5 143.5t163.5 56.5t163.5 -56.5t93.5 -143.5q2 -11 5 -24q1 -9 1 -10q0 -3 1 -9q1 -13 1 -22.5t-1 -22.5q-1 -6 -1 -9q0 -2 -1 -10q-2 -12 -5 -23
q-19 -74 -75 -127.5t-131 -67.5q-14 22 -51 22q-23 0 -39 -10.5t-16 -26t16 -26t39 -10.5q21 0 36.5 9.5t17.5 23.5q80 15 139.5 71t80.5 135q5 -1 9 -1q23 0 39 16t16 38v37q0 23 -16 39t-39 16q-4 0 -9 -1q-25 92 -101 151.5t-173 59.5zM512 160q23 0 43 11.5t32 31.5
q7 12 -5 19t-19 -5q-17 -30 -51 -30t-51 30q-7 12 -19 5t-5 -19q12 -20 32 -31.5t43 -11.5zM375 366q-19 0 -32.5 -13.5t-13.5 -32.5t13.5 -32.5t32.5 -13.5q29 0 41 26l-39 20l39 20q-12 26 -41 26zM649 366q-19 0 -32.5 -13.5t-13.5 -32.5t13.5 -32.5t32.5 -13.5
q29 0 41 26l-39 20l39 20q-12 26 -41 26zM499 448l18 -55h50l36 110l37 -110h126q-10 97 -83 163t-171 66t-171 -66t-83 -163h222z" />
    <glyph glyph-name="pause1" unicode="&#xe64b;" 
d="M512 -99q-98 0 -187.5 38.5t-154 103t-103 154t-38.5 187.5t38.5 187.5t103 154t154 103t187.5 38.5t187.5 -38.5t154 -103t103 -154t38.5 -187.5t-38.5 -187.5t-103 -154t-154 -103t-187.5 -38.5zM512 799q-112 0 -208 -55.5t-151.5 -151.5t-55.5 -208t55.5 -208
t151.5 -151.5t208 -55.5t208 55.5t151.5 151.5t55.5 208t-55.5 208t-151.5 151.5t-208 55.5zM362 572h67q14 0 24 -10t10 -24v-338q0 -14 -10 -24t-24 -10h-67q-14 0 -24 10t-10 24v338q0 15 10 24.5t24 9.5zM599 572h67q14 0 24 -10t10 -24v-338q0 -14 -10 -24t-24 -10h-67
q-14 0 -24 10t-10 24v338q0 15 10 24.5t24 9.5z" />
    <glyph glyph-name="shanchu" unicode="&#xe6e7;" 
d="M512 149q10 0 15.5 6t5.5 16v320q0 9 -5.5 15t-15.5 6t-15.5 -6t-5.5 -15v-320q0 -10 5.5 -16t15.5 -6zM362.5 171q9.5 0 15.5 5.5t6 15.5v277q0 10 -6 16t-15.5 6t-15.5 -6t-6 -16v-277q0 -10 6 -15.5t15.5 -5.5zM661.5 171q9.5 0 15.5 5.5t6 15.5v277q0 10 -6 16
t-15.5 6t-15.5 -6t-6 -16v-277q0 -10 6 -15.5t15.5 -5.5zM853 640h-128v85q0 18 -12.5 30.5t-29.5 12.5h-320q-18 0 -30.5 -12.5t-12.5 -30.5v-85h-149q-10 0 -16 -6t-6 -15.5t6 -15.5t16 -6h42v-512q0 -35 25 -60t61 -25h426q36 0 61 25t25 60v512h42q10 0 16 6t6 15.5
t-6 15.5t-16 6zM363 725h320v-85h-320v85zM768 85q0 -17 -12.5 -29.5t-30.5 -12.5h-426q-18 0 -30.5 12.5t-12.5 29.5v512h512v-512z" />
  </font>
</defs>
</svg>
